<svg width="22" height="22" viewBox="0 0 22 22" fill="none" xmlns="http://www.w3.org/2000/svg">
<path d="M15.5833 19.25H6.41667C2.75 19.25 1.83333 18.3333 1.83333 14.6667V7.33333C1.83333 3.66667 2.75 2.75 6.41667 2.75H15.5833C19.25 2.75 20.1667 3.66667 20.1667 7.33333V14.6667C20.1667 18.3333 19.25 19.25 15.5833 19.25Z" stroke="#A2A2A7" stroke-width="1.5" stroke-linecap="round" stroke-linejoin="round"/>
<path d="M12.8333 7.33331H17.4167" stroke="#A2A2A7" stroke-width="1.5" stroke-linecap="round" stroke-linejoin="round"/>
<path d="M13.75 11H17.4167" stroke="#A2A2A7" stroke-width="1.5" stroke-linecap="round" stroke-linejoin="round"/>
<path d="M15.5833 14.6667H17.4167" stroke="#A2A2A7" stroke-width="1.5" stroke-linecap="round" stroke-linejoin="round"/>
<path d="M7.79167 10.3492C8.708 10.3492 9.45083 9.60632 9.45083 8.68999C9.45083 7.77366 8.708 7.03082 7.79167 7.03082C6.87533 7.03082 6.1325 7.77366 6.1325 8.68999C6.1325 9.60632 6.87533 10.3492 7.79167 10.3492Z" stroke="#A2A2A7" stroke-width="1.5" stroke-linecap="round" stroke-linejoin="round"/>
<path d="M11 14.9692C10.8717 13.64 9.8175 12.595 8.48833 12.4758C8.03 12.43 7.5625 12.43 7.095 12.4758C5.76583 12.6042 4.71167 13.64 4.58333 14.9692" stroke="#A2A2A7" stroke-width="1.5" stroke-linecap="round" stroke-linejoin="round"/>
</svg>
