<?xml version="1.0" encoding="utf-8"?>
<!-- Generator: Adobe Illustrator 26.0.3, SVG Export Plug-In . SVG Version: 6.00 Build 0)  -->
<svg version="1.1" id="Layer_1" xmlns="http://www.w3.org/2000/svg" xmlns:xlink="http://www.w3.org/1999/xlink" x="0px" y="0px"
	 viewBox="0 0 2000 2000" style="enable-background:new 0 0 2000 2000;" xml:space="preserve">
<style type="text/css">
	.st0{fill:#1C1C1C;}
	.st1{fill:#FFC857;}
	.st2{fill:#FFF4E2;}
</style>
<g>
	<rect x="574.6" y="956.5" class="st0" width="21.4" height="19.5"/>
	<rect x="670.4" y="1063.6" class="st0" width="48.1" height="18.8"/>
	<rect x="769.1" y="1063.6" class="st0" width="21.4" height="19.5"/>
	<path class="st0" d="M614,970.7v75.1c0,3.7-0.9,7.2-2.7,10.3c-1.8,3.1-4.2,5.6-7.3,7.5c-3.1,1.8-6.5,2.8-10.2,2.8h-17
		c-3.7,0-7.1-0.9-10.2-2.8c-3.1-1.8-5.6-4.3-7.4-7.5c-1.8-3.1-2.7-6.6-2.7-10.3v-81.5l-23.1,12.2v69.3c0,7.9,1.9,15.1,5.8,21.8
		c3.9,6.6,9.2,11.9,15.9,15.8c6.7,3.9,13.9,5.9,21.7,5.9h17c7.9,0,15.1-2,21.8-5.9c6.6-3.9,11.9-9.2,15.8-15.8
		c3.9-6.6,5.9-13.9,5.9-21.8v-26.5v-61L614,970.7z"/>
	<path class="st0" d="M698.5,970.4v48.9h-61.3l13.4,22.9h48c12.6,0,22.8-10.2,22.8-22.8v-0.2v-60.9L698.5,970.4z"/>
	<path class="st0" d="M790.2,1019.4h-68.8l13.4,22.9h55.6c12.6,0,22.8-10.2,22.8-22.8v-61l-22.9,12V1019.4z"/>
	<polygon class="st0" points="875.8,914 852.8,926.1 852.8,1013.5 875.8,999.3 	"/>
	<path class="st0" d="M1106,977.4c-3.9-6.6-9.2-11.9-15.8-15.8c-6.6-3.9-13.8-5.8-21.6-5.8h-63.8l-13.4,22.9v-68l-23,12.2v96.5h-34
		V914l-22.9,12v93.3h-64.1l-13.4,22.9h77.8c12.5,0,22.7-10.2,22.7-22.7v-0.2l13.4,22.9h120.9c7.9,0,15.2-1.9,21.8-5.8
		c6.6-3.8,11.8-9.1,15.7-15.7c3.8-6.6,5.8-13.9,5.8-21.8C1111.9,991.2,1110,984,1106,977.4z M1086.2,1009.2
		c-1.8,3.1-4.3,5.6-7.4,7.4c-3.1,1.8-6.5,2.8-10.2,2.8h-77.2v-40.7h77.2c3.7,0,7.1,0.9,10.2,2.7c3.1,1.8,5.6,4.3,7.4,7.4
		c1.8,3.1,2.7,6.5,2.7,10.2S1088,1006.1,1086.2,1009.2z"/>
</g>
<g>
	<g>
		<path class="st1" d="M1398.5,961.8l-2.3,0.2v58.3l2.3-0.2l35-3.7V958L1398.5,961.8z"/>
		<path class="st1" d="M1396.2,962v-28.6c0-8.8-7.1-15.8-15.8-15.8h-133.2c-8.8,0-15.8,7.1-15.8,15.8v133.2
			c0,8.8,7.1,15.8,15.8,15.8h133.2c8.8,0,15.8-7.1,15.8-15.8v-46.2l2.3-0.2l35-3.7v49.8c0,29.6-24,53.6-53.6,53.6h-132.3
			c-29.6,0-53.6-24-53.6-53.6V933.9c0-29.6,24-53.6,53.6-53.6h132.3c29.6,0,53.6,24,53.6,53.6V958l-35,3.7L1396.2,962z"/>
	</g>
	<g>
		<polygon class="st0" points="1160.7,987.2 1194,983.6 1194,1041.9 1160.7,1045.5 		"/>
		<polygon class="st0" points="1466.7,954.5 1466.7,1012.8 1435.7,1016.1 1433.4,1016.4 1398.5,1020.1 1396.2,1020.4 1233.5,1037.7 
			1231.2,1038 1231.2,979.6 1233.5,979.4 1396.2,962 1398.5,961.8 1433.4,958 1435.7,957.8 		"/>
	</g>
</g>
</svg>
