<?xml version="1.0" encoding="utf-8"?>
<!-- Generator: Adobe Illustrator 26.0.3, SVG Export Plug-In . SVG Version: 6.00 Build 0)  -->
<svg version="1.1" id="Layer_1" xmlns="http://www.w3.org/2000/svg" xmlns:xlink="http://www.w3.org/1999/xlink" x="0px" y="0px"
	 viewBox="0 0 2000 2000" style="enable-background:new 0 0 2000 2000;" xml:space="preserve">
<style type="text/css">
	.st0{fill:#1C1C1C;}
	.st1{fill:#FFC857;}
	.st2{fill:#FFF4E2;}
</style>
<g>
	<rect x="563.5" y="918.1" class="st2" width="19.3" height="17.6"/>
	<rect x="650.2" y="1015" class="st2" width="43.5" height="17"/>
	<rect x="739.6" y="1015" class="st2" width="19.3" height="17.6"/>
	<path class="st2" d="M599.2,931v68c0,3.4-0.8,6.5-2.4,9.3c-1.6,2.8-3.8,5.1-6.6,6.8c-2.8,1.7-5.9,2.5-9.2,2.5h-15.4
		c-3.3,0-6.4-0.8-9.2-2.5c-2.8-1.7-5-3.9-6.7-6.8c-1.7-2.8-2.5-6-2.5-9.3v-73.8l-20.9,11.1V999c0,7.1,1.8,13.7,5.3,19.7
		c3.5,6,8.3,10.8,14.4,14.3c6,3.5,12.6,5.3,19.7,5.3h15.4c7.1,0,13.7-1.8,19.7-5.3c6-3.5,10.8-8.3,14.3-14.3
		c3.5-6,5.3-12.6,5.3-19.7v-24v-55.2L599.2,931z"/>
	<path class="st2" d="M675.7,930.7V975h-55.4l12.1,20.7h43.4c11.4,0,20.6-9.2,20.6-20.6V975v-55.1L675.7,930.7z"/>
	<path class="st2" d="M758.6,975h-62.3l12.1,20.7h50.3c11.4,0,20.6-9.2,20.6-20.6v-55.2l-20.7,10.9V975z"/>
	<polygon class="st2" points="836.1,879.7 815.3,890.6 815.3,969.7 836.1,956.8 	"/>
	<path class="st2" d="M1044.4,937c-3.5-6-8.3-10.8-14.3-14.3c-6-3.5-12.5-5.2-19.6-5.2h-57.7l-12.1,20.7v-61.5l-20.8,11V975h-30.8
		v-95.3l-20.8,10.9V975h-58l-12.1,20.7h70.4c11.4,0,20.6-9.2,20.6-20.5V975l12.1,20.7h109.4c7.2,0,13.8-1.7,19.7-5.2
		c6-3.5,10.7-8.2,14.2-14.2c3.5-6,5.2-12.6,5.2-19.7C1049.7,949.5,1048,943,1044.4,937z M1026.5,965.8c-1.6,2.8-3.9,5.1-6.7,6.7
		c-2.8,1.7-5.9,2.5-9.2,2.5h-69.8v-36.8h69.8c3.3,0,6.4,0.8,9.2,2.5c2.8,1.7,5,3.9,6.7,6.7c1.6,2.8,2.4,5.9,2.4,9.2
		C1028.9,959.9,1028.1,963,1026.5,965.8z"/>
</g>
<g>
	<path class="st2" d="M596.3,1075.1c-1.7-1-3.6-1.5-5.6-1.5h-23v-15.1l-4,1v32.8h-4.5c-1.3,0-2.5-0.3-3.7-1c-1.1-0.7-2-1.6-2.7-2.7
		c-0.7-1.1-1-2.4-1-3.7v-26.5l-3.9,1v25.5c0,1.3-0.3,2.6-1,3.7c-0.7,1.1-1.6,2-2.7,2.7c-1.1,0.7-2.4,1-3.7,1h-7.4v-33.7l-3.9,1.1
		v32.6h-3.1v3.9h14.4c2.1,0,3.9-0.5,5.7-1.5c1.5-0.9,2.7-2.1,3.7-3.5c1,1.5,2.3,2.7,3.9,3.6c1.6,0.9,3.4,1.4,5.3,1.4h31.4
		c2.1,0,4-0.5,5.7-1.5c1.7-1,3.1-2.4,4.1-4.1c1-1.7,1.5-3.6,1.5-5.7c0-2.1-0.5-3.9-1.5-5.7C599.4,1077.5,598,1076.2,596.3,1075.1z
		 M597,1088.6c-0.7,1.1-1.5,2-2.7,2.7c-1.1,0.7-2.3,1-3.7,1h-23v-14.8h23c1.3,0,2.6,0.3,3.7,1c1.1,0.7,2,1.6,2.7,2.7
		c0.7,1.1,1,2.4,1,3.7C598,1086.3,597.6,1087.5,597,1088.6z"/>
	<rect x="633.2" y="1075.9" class="st2" width="11.8" height="3.6"/>
	<path class="st2" d="M738.8,1086.7c0,1-0.2,2-0.7,2.8c-0.5,0.9-1.2,1.5-2,2.1c-0.9,0.5-1.8,0.8-2.9,0.8c-1,0-2-0.3-2.8-0.8
		c-0.9-0.5-1.5-1.2-2.1-2.1c-0.5-0.9-0.8-1.8-0.8-2.8v-9.9h-3.9v9.9c0,1-0.2,2-0.7,2.8c-0.5,0.9-1.2,1.5-2,2.1
		c-0.9,0.5-1.8,0.8-2.9,0.8c-1,0-1.9-0.3-2.8-0.8c-0.9-0.5-1.5-1.2-2.1-2.1c-0.5-0.9-0.8-1.8-0.8-2.8v-9.9h-3.8v8.2
		c0,1.3-0.3,2.6-1,3.7c-0.7,1.1-1.6,2-2.7,2.7c-1.1,0.7-2.4,1-3.7,1h-0.1h-10.2l6.7-8.1c0.9-1.2,1.4-2.6,1.4-4c0-1-0.2-2-0.7-2.9
		c-0.5-1.1-1.4-2-2.4-2.7c-1.1-0.7-2.2-1-3.5-1h-15.9v5.7l5.2,13h-10.4c-1.3,0-2.5-0.3-3.6-1c-1.1-0.7-2-1.6-2.6-2.7
		c-0.7-1.1-1-2.4-1-3.7v-10.1l-3.9,1v9.1c0,1.3-0.3,2.6-1,3.7c-0.7,1.1-1.6,2-2.7,2.7c-1.1,0.7-2.4,1-3.7,1h-27.3
		c-1.3,0-2.5-0.3-3.7-1c-1.1-0.7-2-1.6-2.7-2.7c-0.7-1.1-1-2.4-1-3.7v-10.1l-3.9,1v9.1c0,2.1,0.5,3.9,1.5,5.7c1,1.7,2.4,3.1,4.1,4.1
		c1.7,1,3.6,1.5,5.7,1.5h27.3c2.1,0,3.9-0.5,5.7-1.5c1.5-0.9,2.8-2.1,3.7-3.5c1,1.5,2.3,2.7,3.9,3.6c1.6,0.9,3.4,1.4,5.3,1.4H701
		h0.1h0.3l0,0c1.7,0,3.2-0.4,4.7-1.2c1.6-0.8,2.9-1.9,3.9-3.2c0.5,0.7,1.1,1.4,2,2.1c0.9,0.7,1.8,1.2,2.9,1.7c1.1,0.4,2.1,0.7,3,0.7
		c1.5,0,3-0.3,4.3-1c1.3-0.7,2.4-1.6,3.3-2.8c0.9,1,2,1.9,3.5,2.7c1.4,0.8,2.8,1.2,4.1,1.2c1.7,0,3.3-0.4,4.8-1.3
		c1.5-0.9,2.6-2,3.5-3.5c0.8-1.5,1.3-3.1,1.3-4.8v-11.6l-3.9,0.9V1086.7z M680.4,1078.6v-1.2h11.9c0.8,0,1.5,0.3,2,0.9
		c0.5,0.6,0.8,1.2,0.8,2c0,0.6-0.2,1.2-0.6,1.7l-8.5,10.3L680.4,1078.6z"/>
	<path class="st2" d="M753.2,1075.1c-1.7,1-3.1,2.4-4.1,4.1c-1,1.7-1.5,3.6-1.5,5.7c0,1.9,0.5,3.8,1.5,5.5c1,1.7,2.4,3.1,4.1,4.2
		c1.7,1.1,3.5,1.6,5.5,1.6h7.2l-13.9,9.3l2.2,3.2l16-10.7v-24.4h-11.3C756.9,1073.6,755,1074.1,753.2,1075.1z M766.3,1092.3h-7.4
		c-1.3,0-2.6-0.3-3.7-1c-1.1-0.7-2-1.6-2.7-2.7c-0.7-1.1-1-2.4-1-3.7c0-1.3,0.3-2.6,1-3.7c0.7-1.1,1.6-2,2.7-2.7
		c1.1-0.7,2.4-1,3.7-1h7.4V1092.3z"/>
	<rect x="811.3" y="1102.5" class="st2" width="4.7" height="4"/>
	<path class="st2" d="M819.8,1084.9c0,1.3-0.3,2.6-1,3.7c-0.7,1.1-1.6,2-2.7,2.7c-1.1,0.7-2.3,1-3.7,1c-1.3,0-2.6-0.3-3.7-1
		c-1.1-0.7-2-1.6-2.7-2.7c-0.7-1.1-1-2.4-1-3.7l0,0v-11.2h-11.3c-2,0-3.9,0.5-5.6,1.5c-1.7,1-3.1,2.4-4.1,4.1
		c-1,1.7-1.5,3.6-1.5,5.6c0,2.1,0.5,3.9,1.5,5.7c1,1.7,2.4,3.1,4.1,4.1c1.7,1,3.6,1.5,5.6,1.5c2.1,0,3.9-0.5,5.7-1.5
		c1.5-0.9,2.8-2.1,3.7-3.6c1,1.5,2.3,2.8,4,3.7c1.6,0.9,3.3,1.4,5.2,1.4l0,0h0.2c2,0,3.9-0.5,5.6-1.5c1.7-1,3.1-2.4,4.1-4.1
		c1-1.7,1.5-3.6,1.5-5.7v-10.1l-3.9,1V1084.9z M801.1,1084.9c0,1.3-0.3,2.6-1,3.7c-0.7,1.1-1.6,2-2.7,2.7c-1.1,0.7-2.4,1-3.7,1
		c-1.3,0-2.6-0.3-3.7-1c-1.1-0.7-2-1.6-2.7-2.7c-0.7-1.1-1-2.4-1-3.7c0-1.3,0.3-2.6,1-3.7c0.7-1.1,1.6-2,2.7-2.7
		c1.1-0.7,2.4-1,3.7-1h7.4V1084.9z"/>
	<rect x="867.3" y="1064.4" class="st2" width="4.7" height="4"/>
	<path class="st2" d="M868.4,1084.9c0,1.3-0.3,2.6-1,3.7c-0.7,1.1-1.6,2-2.7,2.7c-1.1,0.7-2.3,1-3.7,1H861h-3v-18.7h-11.3
		c-2.1,0-3.9,0.5-5.7,1.5c-1.7,1-3.1,2.4-4.1,4.1c-1,1.7-1.5,3.6-1.5,5.7c0,1.9,0.5,3.8,1.5,5.5c1,1.7,2.4,3.1,4.1,4.2
		c1.7,1.1,3.5,1.6,5.5,1.6h7.2l-13.9,9.3l2.2,3.2l16-10.7v-1.8h2.9h0.2h0l0,0c2,0,3.9-0.5,5.6-1.5c1.7-1,3.1-2.4,4.1-4.1
		c1-1.7,1.5-3.6,1.5-5.7v-10.1l-3.9,1V1084.9z M854.1,1092.3h-7.4c-1.3,0-2.6-0.3-3.7-1c-1.1-0.7-2-1.6-2.7-2.7
		c-0.7-1.1-1-2.4-1-3.7c0-1.3,0.3-2.6,1-3.7c0.7-1.1,1.6-2,2.7-2.7c1.1-0.7,2.4-1,3.7-1h7.4V1092.3z"/>
	<path class="st2" d="M961.4,1075.2c-1.7-1-3.6-1.5-5.7-1.5h-27.2v3.9h3.1c-1,1-1.7,2.1-2.2,3.4c-0.5,1.3-0.8,2.6-0.8,4
		c0,1.4,0.3,2.8,0.8,4.1c0.5,1.3,1.3,2.4,2.2,3.4h-6.2h-24.7l-0.2,3.9h16.4c0.3,0.5,0.6,1,0.8,1.7c0.2,0.6,0.3,1.3,0.3,1.9
		c0,1.3-0.3,2.6-1,3.7c-0.7,1.1-1.6,2-2.7,2.7c-1.1,0.7-2.4,1-3.7,1h-14.9c-1.3,0-2.6-0.3-3.7-1c-1.1-0.7-2-1.6-2.7-2.7
		c-0.7-1.1-1-2.4-1-3.7v-16.3l-3.9,0.9v15.4c0,2.1,0.5,3.9,1.5,5.7c1,1.7,2.4,3.1,4.1,4.1c1.7,1,3.6,1.5,5.7,1.5h14.9
		c2,0,3.9-0.5,5.7-1.5c1.7-1,3.1-2.4,4.1-4.1c1-1.7,1.5-3.6,1.5-5.7c0-1.2-0.3-2.4-0.8-3.6h4.3h30.2c2.1,0,3.9-0.5,5.7-1.5
		c1.7-1,3.1-2.4,4.1-4.1c1-1.7,1.5-3.6,1.5-5.7c0-2-0.5-3.9-1.5-5.6C964.5,1077.5,963.2,1076.2,961.4,1075.2z M946.4,1088.6
		c-0.7,1.1-1.6,2-2.7,2.7c-1.1,0.7-2.4,1-3.7,1c-1.3,0-2.6-0.3-3.7-1c-1.1-0.7-2-1.6-2.7-2.7c-0.7-1.1-1-2.4-1-3.7
		c0-1.3,0.3-2.6,1-3.7c0.7-1.1,1.6-2,2.7-2.7c1.1-0.7,2.4-1,3.7-1c1.3,0,2.6,0.3,3.7,1c1.1,0.7,2,1.6,2.7,2.7c0.7,1.1,1,2.4,1,3.7
		C947.4,1086.3,947.1,1087.5,946.4,1088.6z M962.2,1088.6c-0.7,1.1-1.6,2-2.7,2.7c-1.1,0.7-2.4,1-3.7,1h-7.5c0.9-1,1.7-2.1,2.2-3.4
		c0.5-1.3,0.8-2.6,0.8-4.1c0-1.4-0.3-2.7-0.8-4s-1.3-2.4-2.2-3.4h7.5c1.3,0,2.6,0.3,3.7,1c1.1,0.7,2,1.6,2.7,2.7
		c0.7,1.1,1,2.4,1,3.7C963.2,1086.3,962.9,1087.5,962.2,1088.6z"/>
	<polygon class="st2" points="1008.1,1055.9 1007,1054.3 994.8,1062 995.8,1063.6 	"/>
	<rect x="1044.7" y="1064.4" class="st2" width="4.7" height="4"/>
	<path class="st2" d="M1045.8,1075.8v9.1c0,1.3-0.3,2.6-1,3.7c-0.7,1.1-1.6,2-2.7,2.7c-1.1,0.7-2.3,1-3.7,1c-1.3,0-2.6-0.3-3.7-1
		c-1.1-0.7-2-1.6-2.7-2.7c-0.7-1.1-1-2.4-1-3.7c0-2.1-0.5-3.9-1.5-5.7c-1-1.7-2.4-3.1-4.1-4.1c-1.7-1-3.6-1.5-5.7-1.5h-24.7l17.6-11
		l-2.2-3.2l-22.4,14.2v3.9h31.6c1.3,0,2.6,0.3,3.7,1c1.1,0.7,2,1.6,2.7,2.7c0.7,1.1,1,2.4,1,3.7c0,1.3-0.3,2.6-1,3.7
		c-0.7,1.1-1.6,2-2.7,2.7c-1.1,0.7-2.4,1-3.7,1h-34.8l0,0l0,0c-1.3,0-2.6-0.3-3.7-1c-1.1-0.7-2-1.6-2.7-2.7c-0.7-1.1-1-2.4-1-3.7
		v-26.2l-3.9,1v25.2c0,2,0.5,3.9,1.5,5.6c1,1.7,2.4,3.1,4.1,4.1c1.7,1,3.6,1.5,5.7,1.5l0,0l0,0h34.8c2.1,0,3.9-0.5,5.7-1.5
		c1.5-0.9,2.7-2.1,3.7-3.5c1,1.5,2.3,2.7,3.9,3.6c1.6,0.9,3.3,1.4,5.2,1.4l0,0h0.2c0,0,0,0,0,0c0,0,0,0,0,0l0,0c2,0,3.9-0.5,5.6-1.5
		c1.7-1,3.1-2.4,4.1-4.1c1-1.7,1.5-3.6,1.5-5.7v-10.1L1045.8,1075.8z"/>
</g>
<g>
	<polygon class="st2" points="1090,983.9 1131.8,979.4 1131.8,1052.6 1090,1057.1 	"/>
	<g>
		<path class="st1" d="M1388.2,952.1l-2.9,0.3v73.2l2.9-0.3l43.8-4.7v-73.2L1388.2,952.1z"/>
		<path class="st1" d="M1385.4,952.4v-35.9c0-11-8.9-19.9-19.9-19.9h-167.1c-11,0-19.9,8.9-19.9,19.9v167.1c0,11,8.9,19.9,19.9,19.9
			h167.1c11,0,19.9-8.9,19.9-19.9v-58l2.9-0.3l43.8-4.7v62.4c0,37.1-30.1,67.2-67.2,67.2H1199c-37.1,0-67.2-30.1-67.2-67.2V917
			c0-37.1,30.1-67.2,67.2-67.2h165.9c37.1,0,67.2,30.1,67.2,67.2v30.3l-43.8,4.7L1385.4,952.4z"/>
	</g>
	<polygon class="st2" points="1473.8,942.9 1473.8,1016.1 1435,1020.2 1432.1,1020.6 1388.2,1025.2 1385.4,1025.5 1181.4,1047.3 
		1178.5,1047.6 1178.5,974.5 1181.4,974.2 1385.4,952.4 1388.2,952.1 1432.1,947.4 1435,947.1 	"/>
</g>
</svg>
