<?xml version="1.0" encoding="utf-8"?>
<!-- Generator: Adobe Illustrator 26.0.3, SVG Export Plug-In . SVG Version: 6.00 Build 0)  -->
<svg version="1.1" id="Layer_1" xmlns="http://www.w3.org/2000/svg" xmlns:xlink="http://www.w3.org/1999/xlink" x="0px" y="0px"
	 viewBox="0 0 2000 2000" style="enable-background:new 0 0 2000 2000;" xml:space="preserve">
<style type="text/css">
	.st0{fill:#1C1C1C;}
	.st1{fill:#FFC857;}
	.st2{fill:#FFF4E2;}
</style>
<g>
	<polygon class="st0" points="692,956.2 692,932.2 598,932.2 598,956.2 656.9,956.2 	"/>
	<polygon class="st0" points="633.1,1067.8 656.9,1067.8 656.9,956.2 633.1,968.2 	"/>
	<rect x="802.3" y="932.2" class="st0" width="23.9" height="135.6"/>
	<path class="st0" d="M1068.5,1043.9v-57.5c0-13.4-10.7-24.1-24.1-24.1h-37.6l-10.3,24.1h43.2c2.7,0,4.7,2,4.7,4.7v47.9
		c0,2.7-2,4.9-4.7,4.9h-43.2v-57.5v-54.2h-23.9v135.6h23.9h47.9C1057.8,1067.8,1068.5,1057.1,1068.5,1043.9z"/>
	<path class="st0" d="M1114.4,1043.9c-2.7,0-4.9-2.2-4.9-4.9v-47.9c0-2.7,2.2-4.7,4.9-4.7h38.3c2.7,0,4.7,2,4.7,4.7v11.9h-22.1
		l-13.8,24.1h59.9v-40.7c0-13.4-10.7-24.1-24.1-24.1h-47.9c-13.2,0-23.9,10.7-23.9,24.1v57.5c0,13.2,10.7,23.9,23.9,23.9h58.4
		l13.6-23.9H1114.4z"/>
	<polygon class="st0" points="1311.6,962.4 1311.6,1067.8 1335.5,1067.8 1335.5,986.4 1335.5,962.4 	"/>
	<path class="st0" d="M1378,962.4h-25.7l-16.8,24.1h37.8c2.7,0,4.7,2,4.7,4.7v76.7h24v-81.4C1402,973,1391.4,962.4,1378,962.4z"/>
	<path class="st0" d="M718,1027.1h34.2l-7.1-24.1h-32c-13.2,0-23.9,10.9-23.9,24.1v16.8c0,13.2,10.7,23.9,23.9,23.9h47.9h24.1v-81.4
		c0-13.4-10.7-24.1-24.1-24.1H712l-13.2,24.1h57.5c2.7,0,4.7,2,4.7,4.7v52.8h-43c-2.7,0-4.9-2.2-4.9-4.9v-7.2
		C713.1,1029.3,715.3,1027.1,718,1027.1z"/>
	<path class="st0" d="M915.1,962.4H866l-13.2,24.1h57.5c2.7,0,4.7,2,4.7,4.7v52.8h-43c-2.7,0-4.9-2.2-4.9-4.9v-7.2
		c0-2.5,2.2-4.7,4.9-4.7h34.2l-7.1-24.1h-32c-13.2,0-23.9,10.9-23.9,24.1v16.8c0,13.2,10.7,23.9,23.9,23.9h47.9h24.1v-81.4
		C939.2,973,928.5,962.4,915.1,962.4z"/>
	<path class="st0" d="M1270.4,962.4h-49.1l-13.2,24.1h57.5c2.7,0,4.7,2,4.7,4.7v52.8h-43c-2.7,0-4.9-2.2-4.9-4.9v-7.2
		c0-2.5,2.2-4.7,4.9-4.7h34.2l-7.1-24.1h-32c-13.2,0-23.9,10.9-23.9,24.1v16.8c0,13.2,10.7,23.9,23.9,23.9h47.9h24.1v-81.4
		C1294.5,973,1283.8,962.4,1270.4,962.4z"/>
</g>
</svg>
