<?xml version="1.0" encoding="utf-8"?>
<!-- Generator: Adobe Illustrator 26.0.3, SVG Export Plug-In . SVG Version: 6.00 Build 0)  -->
<svg version="1.1" id="Layer_1" xmlns="http://www.w3.org/2000/svg" xmlns:xlink="http://www.w3.org/1999/xlink" x="0px" y="0px"
	 viewBox="0 0 2000 2000" style="enable-background:new 0 0 2000 2000;" xml:space="preserve">
<style type="text/css">
	.st0{fill:#1C1C1C;}
	.st1{fill:#FFC857;}
	.st2{fill:#FFF4E2;}
</style>
<g>
	<polygon class="st0" points="906.8,923.2 906.8,899.2 812.7,899.2 812.7,923.2 871.7,923.2 	"/>
	<polygon class="st0" points="847.8,1034.8 871.7,1034.8 871.7,923.2 847.8,935.2 	"/>
	<rect x="1017" y="899.2" class="st0" width="23.9" height="135.6"/>
	<path class="st0" d="M1283.2,1010.9v-57.5c0-13.4-10.7-24.1-24.1-24.1h-37.6l-10.3,24.1h43.2c2.7,0,4.7,2,4.7,4.7v47.9
		c0,2.7-2,4.9-4.7,4.9h-43.2v-57.5v-54.2h-23.9v135.6h23.9h47.9C1272.6,1034.8,1283.2,1024.1,1283.2,1010.9z"/>
	<path class="st0" d="M1329.1,1010.9c-2.7,0-4.9-2.2-4.9-4.9v-47.9c0-2.7,2.2-4.7,4.9-4.7h38.3c2.7,0,4.7,2,4.7,4.7V970h-22.1
		l-13.8,24.1h59.9v-40.7c0-13.4-10.7-24.1-24.1-24.1h-47.9c-13.2,0-23.9,10.7-23.9,24.1v57.5c0,13.2,10.7,23.9,23.9,23.9h58.4
		l13.6-23.9H1329.1z"/>
	<polygon class="st0" points="1526.4,929.3 1526.4,1034.8 1550.3,1034.8 1550.3,953.4 1550.3,929.3 	"/>
	<path class="st0" d="M1592.8,929.3h-25.7l-16.8,24.1h37.8c2.7,0,4.7,2,4.7,4.7v76.7h24v-81.4C1616.8,940,1606.2,929.3,1592.8,929.3
		z"/>
	<path class="st0" d="M932.8,994.1H967l-7.1-24.1h-32c-13.2,0-23.9,10.9-23.9,24.1v16.8c0,13.2,10.7,23.9,23.9,23.9h47.9h24.1v-81.4
		c0-13.4-10.7-24.1-24.1-24.1h-49.1l-13.2,24.1h57.5c2.7,0,4.7,2,4.7,4.7v52.8h-43c-2.7,0-4.9-2.2-4.9-4.9v-7.2
		C927.9,996.3,930.1,994.1,932.8,994.1z"/>
	<path class="st0" d="M1129.9,929.3h-49.1l-13.2,24.1h57.5c2.7,0,4.7,2,4.7,4.7v52.8h-43c-2.7,0-4.9-2.2-4.9-4.9v-7.2
		c0-2.5,2.2-4.7,4.9-4.7h34.2L1114,970h-32c-13.2,0-23.9,10.9-23.9,24.1v16.8c0,13.2,10.7,23.9,23.9,23.9h47.9h24.1v-81.4
		C1153.9,940,1143.3,929.3,1129.9,929.3z"/>
	<path class="st0" d="M1485.2,929.3h-49.1l-13.2,24.1h57.5c2.7,0,4.7,2,4.7,4.7v52.8h-43c-2.7,0-4.9-2.2-4.9-4.9v-7.2
		c0-2.5,2.2-4.7,4.9-4.7h34.2l-7.1-24.1h-32c-13.2,0-23.9,10.9-23.9,24.1v16.8c0,13.2,10.7,23.9,23.9,23.9h47.9h24.1v-81.4
		C1509.3,940,1498.6,929.3,1485.2,929.3z"/>
</g>
<g>
	<path class="st0" d="M860.7,1070.3l-12.9,33.1h2.6l3.2-8.4h16.6l3.2,8.4h2.6l-12.8-33.1H860.7z M854.6,1092.7l7.4-19.2l7.4,19.2
		H854.6z"/>
	<path class="st0" d="M903.9,1079.3c-3.9,0-6.8,1.7-8.5,5v-4.5h-2.4v23.6h2.4V1091c0-3.1,0.8-5.4,2.3-7c1.5-1.6,3.5-2.4,6-2.4
		c2.2,0,3.9,0.6,5.1,1.9c1.2,1.3,1.8,3,1.8,5.2v14.7h2.4v-14.7c0-2.9-0.8-5.2-2.5-6.9C909,1080.1,906.7,1079.3,903.9,1079.3z"/>
	<path class="st0" d="M930.4,1079.3c-3.6,0-6.5,1.2-8.8,3.5c-2.3,2.3-3.4,5.3-3.4,8.8c0,3.6,1.2,6.5,3.5,8.9
		c2.3,2.3,5.3,3.5,8.9,3.5c2.3,0,4.3-0.5,6.1-1.4c1.8-1,3.2-2.3,4.2-3.9l-2.1-1.2c-0.7,1.3-1.8,2.3-3.2,3.1c-1.4,0.8-3.1,1.2-5,1.2
		c-2.7,0-5-0.8-6.8-2.4c-1.8-1.6-2.9-3.8-3.2-6.4H942c0-0.1,0-0.3,0-0.6s0-0.4,0-0.6c0-3.4-1.1-6.3-3.2-8.7
		C936.7,1080.5,933.9,1079.3,930.4,1079.3z M920.6,1090.5c0.3-2.6,1.3-4.8,3.1-6.5c1.8-1.7,4-2.5,6.7-2.5c2.4,0,4.5,0.8,6.2,2.4
		c1.7,1.6,2.7,3.8,3,6.6H920.6z"/>
	<polygon class="st0" points="969.1,1100.4 962.4,1079.8 960,1079.8 953.4,1100.4 947.1,1079.8 944.6,1079.8 952,1103.4 
		954.6,1103.4 961.2,1083.3 967.8,1103.4 970.4,1103.4 977.8,1079.8 975.3,1079.8 	"/>
	<polygon class="st0" points="1004.1,1101 995.2,1079.8 992.6,1079.8 1002.7,1103.4 1005.5,1103.4 1015.5,1079.8 1013,1079.8 	"/>
	<path class="st0" d="M1021,1070.3c-0.5,0-0.9,0.2-1.3,0.5c-0.4,0.4-0.6,0.8-0.6,1.3c0,0.5,0.2,1,0.6,1.3c0.4,0.4,0.8,0.5,1.3,0.5
		c0.5,0,0.9-0.2,1.3-0.5c0.4-0.4,0.6-0.8,0.6-1.3c0-0.5-0.2-0.9-0.6-1.3C1021.9,1070.5,1021.5,1070.3,1021,1070.3z"/>
	<rect x="1019.8" y="1079.8" class="st0" width="2.4" height="23.6"/>
	<path class="st0" d="M1040.4,1091.3c-1.4-0.4-2.8-0.8-4.2-1.1c-1.4-0.3-2.6-0.8-3.6-1.5c-1-0.7-1.5-1.6-1.5-2.7
		c0-1.4,0.5-2.4,1.6-3.2c1.1-0.8,2.4-1.2,4-1.2c1.4,0,2.6,0.3,3.7,0.9c1.1,0.6,1.9,1.5,2.4,2.7l2-1.1c-0.7-1.4-1.7-2.6-3.1-3.4
		c-1.4-0.9-3-1.3-4.9-1.3c-2.4,0-4.3,0.6-5.8,1.9c-1.5,1.3-2.2,2.9-2.2,4.8c0,1.6,0.5,2.8,1.5,3.8c1,0.9,2.2,1.6,3.6,2
		c1.4,0.4,2.8,0.8,4.2,1.1c1.4,0.3,2.6,0.8,3.6,1.5c1,0.7,1.5,1.6,1.5,2.8c0,1.4-0.6,2.5-1.7,3.3c-1.1,0.8-2.6,1.2-4.4,1.2
		s-3.3-0.4-4.5-1.1s-2-1.8-2.5-3l-2,1.2c0.6,1.6,1.7,2.8,3.2,3.8c1.6,1,3.5,1.4,5.7,1.4c2.5,0,4.6-0.6,6.1-1.9
		c1.6-1.3,2.3-2.9,2.3-4.8c0-1.6-0.5-2.9-1.5-3.9C1042.9,1092.4,1041.8,1091.7,1040.4,1091.3z"/>
	<rect x="1050.9" y="1079.8" class="st0" width="2.4" height="23.6"/>
	<path class="st0" d="M1052.1,1070.3c-0.5,0-0.9,0.2-1.3,0.5c-0.4,0.4-0.6,0.8-0.6,1.3c0,0.5,0.2,1,0.6,1.3s0.8,0.5,1.3,0.5
		c0.5,0,0.9-0.2,1.3-0.5c0.4-0.4,0.6-0.8,0.6-1.3c0-0.5-0.2-0.9-0.6-1.3C1053,1070.5,1052.6,1070.3,1052.1,1070.3z"/>
	<path class="st0" d="M1071.3,1079.3c-3.5,0-6.4,1.2-8.8,3.6c-2.4,2.4-3.6,5.3-3.6,8.8c0,3.5,1.2,6.4,3.6,8.8
		c2.4,2.4,5.3,3.6,8.8,3.6c3.4,0,6.4-1.2,8.8-3.6c2.4-2.4,3.6-5.3,3.6-8.8c0-3.5-1.2-6.4-3.6-8.8
		C1077.7,1080.5,1074.8,1079.3,1071.3,1079.3z M1078.4,1098.8c-1.9,2-4.3,2.9-7.1,2.9c-2.8,0-5.2-1-7.1-2.9c-1.9-2-2.9-4.3-2.9-7.1
		c0-2.8,1-5.2,2.9-7.1c1.9-2,4.3-2.9,7.1-2.9c2.8,0,5.2,1,7.1,2.9c1.9,2,2.9,4.3,2.9,7.1C1081.3,1094.4,1080.3,1096.8,1078.4,1098.8
		z"/>
	<path class="st0" d="M1100.2,1079.3c-3.9,0-6.8,1.7-8.5,5v-4.5h-2.4v23.6h2.4V1091c0-3.1,0.8-5.4,2.3-7c1.5-1.6,3.5-2.4,6-2.4
		c2.2,0,3.9,0.6,5.1,1.9c1.2,1.3,1.8,3,1.8,5.2v14.7h2.4v-14.7c0-2.9-0.8-5.2-2.5-6.9C1105.2,1080.1,1103,1079.3,1100.2,1079.3z"/>
	<path class="st0" d="M1139.5,1079.3c-3.5,0-6.4,1.2-8.8,3.6c-2.4,2.4-3.6,5.3-3.6,8.8c0,3.5,1.2,6.4,3.6,8.8
		c2.4,2.4,5.3,3.6,8.8,3.6c3.4,0,6.4-1.2,8.8-3.6c2.4-2.4,3.6-5.3,3.6-8.8c0-3.5-1.2-6.4-3.6-8.8
		C1145.8,1080.5,1142.9,1079.3,1139.5,1079.3z M1146.6,1098.8c-1.9,2-4.3,2.9-7.1,2.9c-2.8,0-5.2-1-7.1-2.9c-1.9-2-2.9-4.3-2.9-7.1
		c0-2.8,1-5.2,2.9-7.1c1.9-2,4.3-2.9,7.1-2.9c2.8,0,5.2,1,7.1,2.9c1.9,2,2.9,4.3,2.9,7.1C1149.5,1094.4,1148.5,1096.8,1146.6,1098.8
		z"/>
	<path class="st0" d="M1160.7,1071.8c-1.6,1.5-2.4,3.8-2.4,6.7v1.3h-4.1v2.3h4.1v21.3h2.4v-21.3h7v-2.3h-7v-1.3c0-4.7,2.3-6.8,7-6.4
		v-2.3C1164.7,1069.6,1162.4,1070.3,1160.7,1071.8z"/>
	<path class="st0" d="M1189.1,1073.2l-2.4,0.7v5.9h-5.2v2.3h5.2v15.4c0,2.6,0.8,4.4,2.3,5.3c1.6,0.9,3.9,1.1,7.1,0.7v-2.1
		c-1.6,0.2-2.9,0.2-4,0.1c-1-0.1-1.8-0.4-2.3-1c-0.5-0.6-0.8-1.6-0.8-2.9v-15.4h7v-2.3h-7V1073.2z"/>
	<path class="st0" d="M1212.6,1079.3c-3.9,0-6.8,1.7-8.5,5v-13.9h-2.4v33.1h2.4V1091c0-3.1,0.8-5.4,2.3-7c1.5-1.6,3.5-2.4,6-2.4
		c2.2,0,3.9,0.6,5.1,1.9c1.2,1.3,1.8,3,1.8,5.2v14.7h2.4v-14.7c0-2.9-0.8-5.2-2.5-6.9C1217.6,1080.1,1215.4,1079.3,1212.6,1079.3z"
		/>
	<path class="st0" d="M1239.1,1079.3c-3.6,0-6.5,1.2-8.8,3.5c-2.3,2.3-3.4,5.3-3.4,8.8c0,3.6,1.2,6.5,3.5,8.9
		c2.3,2.3,5.3,3.5,8.9,3.5c2.3,0,4.3-0.5,6.1-1.4c1.8-1,3.2-2.3,4.2-3.9l-2.1-1.2c-0.7,1.3-1.8,2.3-3.2,3.1c-1.4,0.8-3.1,1.2-5,1.2
		c-2.7,0-5-0.8-6.8-2.4c-1.8-1.6-2.9-3.8-3.2-6.4h21.4c0-0.1,0-0.3,0-0.6c0-0.3,0-0.4,0-0.6c0-3.4-1.1-6.3-3.2-8.7
		C1245.4,1080.5,1242.5,1079.3,1239.1,1079.3z M1229.3,1090.5c0.3-2.6,1.3-4.8,3.1-6.5c1.8-1.7,4-2.5,6.7-2.5c2.4,0,4.5,0.8,6.2,2.4
		c1.7,1.6,2.7,3.8,3,6.6H1229.3z"/>
	<polygon class="st0" points="1277.3,1101 1268.4,1079.8 1265.9,1079.8 1275.9,1103.4 1278.8,1103.4 1288.7,1079.8 1286.2,1079.8 	
		"/>
	<path class="st0" d="M1312.9,1085.1c-1-1.8-2.4-3.3-4.2-4.3s-3.8-1.6-6-1.6c-3.4,0-6.3,1.2-8.6,3.6c-2.4,2.4-3.6,5.3-3.6,8.8
		c0,3.5,1.2,6.4,3.6,8.8c2.4,2.4,5.3,3.6,8.6,3.6c2.2,0,4.2-0.5,6-1.6c1.8-1,3.2-2.5,4.2-4.3v5.3h2.4v-23.6h-2.4V1085.1z
		 M1310,1098.8c-1.9,2-4.3,2.9-7.1,2.9c-2.8,0-5.2-1-7.1-2.9c-1.9-2-2.9-4.3-2.9-7.1c0-2.8,1-5.2,2.9-7.1c1.9-2,4.3-2.9,7.1-2.9
		c2.8,0,5.2,1,7.1,2.9c1.9,2,2.9,4.3,2.9,7.1C1312.9,1094.4,1311.9,1096.8,1310,1098.8z"/>
	<path class="st0" d="M1333.5,1091.3c-1.4-0.4-2.8-0.8-4.2-1.1c-1.4-0.3-2.6-0.8-3.6-1.5c-1-0.7-1.5-1.6-1.5-2.7
		c0-1.4,0.5-2.4,1.6-3.2c1.1-0.8,2.4-1.2,4-1.2c1.4,0,2.6,0.3,3.7,0.9c1.1,0.6,1.9,1.5,2.4,2.7l2-1.1c-0.7-1.4-1.7-2.6-3.1-3.4
		c-1.4-0.9-3-1.3-4.9-1.3c-2.4,0-4.3,0.6-5.8,1.9c-1.5,1.3-2.2,2.9-2.2,4.8c0,1.6,0.5,2.8,1.5,3.8c1,0.9,2.2,1.6,3.6,2
		c1.4,0.4,2.8,0.8,4.2,1.1c1.4,0.3,2.6,0.8,3.6,1.5c1,0.7,1.5,1.6,1.5,2.8c0,1.4-0.6,2.5-1.7,3.3c-1.1,0.8-2.6,1.2-4.4,1.2
		c-1.8,0-3.3-0.4-4.5-1.1c-1.2-0.7-2-1.8-2.5-3l-2,1.2c0.6,1.6,1.7,2.8,3.2,3.8c1.6,1,3.5,1.4,5.7,1.4c2.5,0,4.6-0.6,6.1-1.9
		c1.6-1.3,2.3-2.9,2.3-4.8c0-1.6-0.5-2.9-1.5-3.9C1336.1,1092.4,1334.9,1091.7,1333.5,1091.3z"/>
	<path class="st0" d="M1348.3,1073.2l-2.4,0.7v5.9h-5.2v2.3h5.2v15.4c0,2.6,0.8,4.4,2.3,5.3c1.6,0.9,3.9,1.1,7.1,0.7v-2.1
		c-1.6,0.2-2.9,0.2-4,0.1c-1-0.1-1.8-0.4-2.3-1c-0.5-0.6-0.8-1.6-0.8-2.9v-15.4h7v-2.3h-7V1073.2z"/>
	<path class="st0" d="M1371.9,1079.3c-3.9,0-6.8,1.7-8.5,5v-4.5h-2.4v23.6h2.4V1091c0-3.1,0.8-5.4,2.3-7c1.5-1.6,3.5-2.4,6-2.4
		c2.2,0,3.9,0.6,5.1,1.9c1.2,1.3,1.8,3,1.8,5.2v14.7h2.4v-14.7c0-2.9-0.8-5.2-2.5-6.9C1376.9,1080.1,1374.7,1079.3,1371.9,1079.3z"
		/>
	<path class="st0" d="M1398.3,1079.3c-3.6,0-6.5,1.2-8.8,3.5c-2.3,2.3-3.4,5.3-3.4,8.8c0,3.6,1.2,6.5,3.5,8.9
		c2.3,2.3,5.3,3.5,8.9,3.5c2.3,0,4.3-0.5,6.1-1.4c1.8-1,3.2-2.3,4.2-3.9l-2.1-1.2c-0.7,1.3-1.8,2.3-3.2,3.1c-1.4,0.8-3.1,1.2-5,1.2
		c-2.7,0-5-0.8-6.8-2.4c-1.8-1.6-2.9-3.8-3.2-6.4h21.4c0-0.1,0-0.3,0-0.6s0-0.4,0-0.6c0-3.4-1.1-6.3-3.2-8.7
		C1404.6,1080.5,1401.8,1079.3,1398.3,1079.3z M1388.6,1090.5c0.3-2.6,1.3-4.8,3.1-6.5c1.8-1.7,4-2.5,6.7-2.5c2.4,0,4.5,0.8,6.2,2.4
		c1.7,1.6,2.7,3.8,3,6.6H1388.6z"/>
	<path class="st0" d="M1425.5,1091.3c-1.4-0.4-2.8-0.8-4.2-1.1c-1.4-0.3-2.6-0.8-3.6-1.5c-1-0.7-1.5-1.6-1.5-2.7
		c0-1.4,0.5-2.4,1.6-3.2c1.1-0.8,2.4-1.2,4-1.2c1.4,0,2.6,0.3,3.7,0.9c1.1,0.6,1.9,1.5,2.4,2.7l2-1.1c-0.7-1.4-1.7-2.6-3.1-3.4
		c-1.4-0.9-3-1.3-4.9-1.3c-2.4,0-4.3,0.6-5.8,1.9c-1.5,1.3-2.2,2.9-2.2,4.8c0,1.6,0.5,2.8,1.5,3.8c1,0.9,2.2,1.6,3.6,2
		c1.4,0.4,2.8,0.8,4.2,1.1c1.4,0.3,2.6,0.8,3.6,1.5c1,0.7,1.5,1.6,1.5,2.8c0,1.4-0.6,2.5-1.7,3.3c-1.1,0.8-2.6,1.2-4.4,1.2
		c-1.8,0-3.3-0.4-4.5-1.1s-2-1.8-2.5-3l-2,1.2c0.6,1.6,1.7,2.8,3.2,3.8c1.6,1,3.5,1.4,5.7,1.4c2.5,0,4.6-0.6,6.1-1.9
		c1.6-1.3,2.3-2.9,2.3-4.8c0-1.6-0.5-2.9-1.5-3.9C1428.1,1092.4,1426.9,1091.7,1425.5,1091.3z"/>
	<path class="st0" d="M1445.7,1091.3c-1.4-0.4-2.8-0.8-4.2-1.1c-1.4-0.3-2.6-0.8-3.6-1.5c-1-0.7-1.5-1.6-1.5-2.7
		c0-1.4,0.5-2.4,1.6-3.2c1.1-0.8,2.4-1.2,4-1.2c1.4,0,2.6,0.3,3.7,0.9c1.1,0.6,1.9,1.5,2.4,2.7l2-1.1c-0.7-1.4-1.7-2.6-3.1-3.4
		c-1.4-0.9-3-1.3-4.9-1.3c-2.4,0-4.3,0.6-5.8,1.9c-1.5,1.3-2.2,2.9-2.2,4.8c0,1.6,0.5,2.8,1.5,3.8c1,0.9,2.2,1.6,3.6,2
		c1.4,0.4,2.8,0.8,4.2,1.1c1.4,0.3,2.6,0.8,3.6,1.5c1,0.7,1.5,1.6,1.5,2.8c0,1.4-0.6,2.5-1.7,3.3c-1.1,0.8-2.6,1.2-4.4,1.2
		c-1.8,0-3.3-0.4-4.5-1.1c-1.2-0.7-2-1.8-2.5-3l-2,1.2c0.6,1.6,1.7,2.8,3.2,3.8c1.6,1,3.5,1.4,5.7,1.4c2.5,0,4.6-0.6,6.1-1.9
		c1.6-1.3,2.3-2.9,2.3-4.8c0-1.6-0.5-2.9-1.5-3.9C1448.3,1092.4,1447.1,1091.7,1445.7,1091.3z"/>
	<path class="st0" d="M1479.9,1079.3c-3.5,0-6.4,1.2-8.8,3.6c-2.4,2.4-3.6,5.3-3.6,8.8c0,3.5,1.2,6.4,3.6,8.8
		c2.4,2.4,5.3,3.6,8.8,3.6c3.4,0,6.4-1.2,8.8-3.6c2.4-2.4,3.6-5.3,3.6-8.8c0-3.5-1.2-6.4-3.6-8.8
		C1486.3,1080.5,1483.4,1079.3,1479.9,1079.3z M1487,1098.8c-1.9,2-4.3,2.9-7.1,2.9c-2.8,0-5.2-1-7.1-2.9c-1.9-2-2.9-4.3-2.9-7.1
		c0-2.8,1-5.2,2.9-7.1c1.9-2,4.3-2.9,7.1-2.9c2.8,0,5.2,1,7.1,2.9c1.9,2,2.9,4.3,2.9,7.1C1489.9,1094.4,1488.9,1096.8,1487,1098.8z"
		/>
	<path class="st0" d="M1501.2,1071.8c-1.6,1.5-2.4,3.8-2.4,6.7v1.3h-4.1v2.3h4.1v21.3h2.4v-21.3h7v-2.3h-7v-1.3c0-4.7,2.3-6.8,7-6.4
		v-2.3C1505.1,1069.6,1502.8,1070.3,1501.2,1071.8z"/>
	<path class="st0" d="M1545.4,1085.3c-1-1.9-2.4-3.3-4.1-4.4c-1.8-1.1-3.8-1.6-6-1.6c-3.4,0-6.3,1.2-8.7,3.6
		c-2.4,2.4-3.6,5.3-3.6,8.8c0,3.5,1.2,6.4,3.6,8.8c2.4,2.4,5.3,3.6,8.7,3.6c2.2,0,4.2-0.5,6-1.6c1.8-1.1,3.2-2.5,4.1-4.4v4.3
		c0,2.7-0.8,4.9-2.5,6.5c-1.7,1.6-4,2.4-6.9,2.4c-4.5,0-7.6-1.5-9.1-4.6l-2.1,1.2c0.9,1.8,2.3,3.2,4.2,4.2c1.9,1,4.2,1.5,6.9,1.5
		c3.4,0,6.2-1,8.4-3c2.2-2,3.4-4.7,3.4-8.1v-22.5h-2.4V1085.3z M1542.5,1098.8c-1.9,2-4.3,2.9-7.1,2.9c-2.8,0-5.2-1-7.1-2.9
		c-1.9-2-2.9-4.3-2.9-7.1c0-2.8,1-5.2,2.9-7.1c1.9-2,4.3-2.9,7.1-2.9c2.8,0,5.2,1,7.1,2.9c1.9,2,2.9,4.3,2.9,7.1
		C1545.4,1094.4,1544.5,1096.8,1542.5,1098.8z"/>
	<path class="st0" d="M1565.9,1079.3c-3.5,0-6.4,1.2-8.8,3.6c-2.4,2.4-3.6,5.3-3.6,8.8c0,3.5,1.2,6.4,3.6,8.8
		c2.4,2.4,5.3,3.6,8.8,3.6c3.4,0,6.4-1.2,8.8-3.6c2.4-2.4,3.6-5.3,3.6-8.8c0-3.5-1.2-6.4-3.6-8.8
		C1572.3,1080.5,1569.3,1079.3,1565.9,1079.3z M1573,1098.8c-1.9,2-4.3,2.9-7.1,2.9c-2.8,0-5.2-1-7.1-2.9c-1.9-2-2.9-4.3-2.9-7.1
		c0-2.8,1-5.2,2.9-7.1c1.9-2,4.3-2.9,7.1-2.9c2.8,0,5.2,1,7.1,2.9c1.9,2,2.9,4.3,2.9,7.1C1575.9,1094.4,1574.9,1096.8,1573,1098.8z"
		/>
	<rect x="1583.9" y="1068.9" class="st0" width="2.4" height="34.5"/>
	<path class="st0" d="M1614.4,1085.3c-1-1.9-2.4-3.3-4.1-4.4s-3.8-1.6-6-1.6c-3.4,0-6.3,1.2-8.7,3.6c-2.4,2.4-3.6,5.3-3.6,8.8
		c0,3.5,1.2,6.4,3.6,8.8c2.4,2.4,5.3,3.6,8.7,3.6c2.2,0,4.2-0.5,6-1.6c1.8-1.1,3.2-2.5,4.1-4.4v5.5h2.4v-33.1h-2.4V1085.3z
		 M1611.5,1098.8c-1.9,2-4.3,2.9-7.1,2.9c-2.8,0-5.2-1-7.1-2.9c-1.9-2-2.9-4.3-2.9-7.1c0-2.8,1-5.2,2.9-7.1c1.9-2,4.3-2.9,7.1-2.9
		c2.8,0,5.2,1,7.1,2.9c1.9,2,2.9,4.3,2.9,7.1C1614.4,1094.4,1613.5,1096.8,1611.5,1098.8z"/>
</g>
<g>
	<g>
		<path class="st1" d="M685.7,951.4l-2.9,0.3v74.2l2.9-0.3l44.5-4.8v-74.2L685.7,951.4z"/>
		<path class="st1" d="M682.7,951.7v-36.4c0-11.1-9-20.2-20.2-20.2H493.1c-11.1,0-20.2,9-20.2,20.2v169.5c0,11.1,9,20.2,20.2,20.2
			h169.5c11.1,0,20.2-9,20.2-20.2v-58.8l2.9-0.3l44.5-4.8v63.3c0,37.6-30.5,68.1-68.1,68.1H493.7c-37.6,0-68.1-30.5-68.1-68.1V915.9
			c0-37.6,30.5-68.1,68.1-68.1H662c37.6,0,68.1,30.5,68.1,68.1v30.8l-44.5,4.8L682.7,951.7z"/>
	</g>
	<g>
		<polygon class="st0" points="383.2,983.7 425.6,979.2 425.6,1053.4 383.2,1057.9 		"/>
		<polygon class="st0" points="772.5,942.1 772.5,1016.3 733.1,1020.5 730.1,1020.8 685.7,1025.6 682.7,1025.9 475.9,1048 
			472.9,1048.3 472.9,974.1 475.9,973.8 682.7,951.7 685.7,951.4 730.1,946.6 733.1,946.3 		"/>
	</g>
</g>
</svg>
