<?xml version="1.0" encoding="utf-8"?>
<!-- Generator: Adobe Illustrator 26.0.3, SVG Export Plug-In . SVG Version: 6.00 Build 0)  -->
<svg version="1.1" id="Layer_1" xmlns="http://www.w3.org/2000/svg" xmlns:xlink="http://www.w3.org/1999/xlink" x="0px" y="0px"
	 viewBox="0 0 2000 2000" style="enable-background:new 0 0 2000 2000;" xml:space="preserve">
<style type="text/css">
	.st0{fill:#1C1C1C;}
	.st1{fill:#FFC857;}
	.st2{fill:#FFF4E2;}
</style>
<g>
	<rect x="752" y="956.5" class="st0" width="21.4" height="19.5"/>
	<rect x="847.8" y="1063.6" class="st0" width="48.1" height="18.8"/>
	<rect x="946.5" y="1063.6" class="st0" width="21.4" height="19.5"/>
	<path class="st0" d="M791.4,970.7v75.1c0,3.7-0.9,7.2-2.7,10.3c-1.8,3.1-4.2,5.6-7.3,7.5c-3.1,1.8-6.5,2.8-10.2,2.8h-17
		c-3.7,0-7.1-0.9-10.2-2.8c-3.1-1.8-5.6-4.3-7.4-7.5c-1.8-3.1-2.7-6.6-2.7-10.3v-81.5l-23.1,12.2v69.3c0,7.9,1.9,15.1,5.8,21.8
		c3.9,6.6,9.2,11.9,15.9,15.8c6.7,3.9,13.9,5.9,21.7,5.9h17c7.9,0,15.1-2,21.8-5.9c6.6-3.9,11.9-9.2,15.8-15.8
		c3.9-6.6,5.9-13.9,5.9-21.8v-26.5v-61L791.4,970.7z"/>
	<path class="st0" d="M875.9,970.4v48.9h-61.3l13.4,22.9h48c12.6,0,22.8-10.2,22.8-22.8v-0.2v-60.9L875.9,970.4z"/>
	<path class="st0" d="M967.6,1019.4h-68.8l13.4,22.9h55.6c12.6,0,22.8-10.2,22.8-22.8v-61l-22.9,12V1019.4z"/>
	<polygon class="st0" points="1053.2,914 1030.2,926.1 1030.2,1013.5 1053.2,999.3 	"/>
	<path class="st0" d="M1283.5,977.4c-3.9-6.6-9.2-11.9-15.8-15.8c-6.6-3.9-13.8-5.8-21.6-5.8h-63.8l-13.4,22.9v-68l-23,12.2v96.5
		h-34V914l-22.9,12v93.3h-64.1l-13.4,22.9h77.8c12.5,0,22.7-10.2,22.7-22.7v-0.2l13.4,22.9h120.9c7.9,0,15.2-1.9,21.8-5.8
		c6.6-3.8,11.8-9.1,15.7-15.7c3.8-6.6,5.8-13.9,5.8-21.8C1289.3,991.2,1287.4,984,1283.5,977.4z M1263.6,1009.2
		c-1.8,3.1-4.3,5.6-7.4,7.4c-3.1,1.8-6.5,2.8-10.2,2.8h-77.2v-40.7h77.2c3.7,0,7.1,0.9,10.2,2.7c3.1,1.8,5.6,4.3,7.4,7.4
		c1.8,3.1,2.7,6.5,2.7,10.2S1265.4,1006.1,1263.6,1009.2z"/>
</g>
</svg>
