<?xml version="1.0" encoding="utf-8"?>
<!-- Generator: Adobe Illustrator 26.0.3, SVG Export Plug-In . SVG Version: 6.00 Build 0)  -->
<svg version="1.1" id="Layer_1" xmlns="http://www.w3.org/2000/svg" xmlns:xlink="http://www.w3.org/1999/xlink" x="0px" y="0px"
	 viewBox="0 0 2000 2000" style="enable-background:new 0 0 2000 2000;" xml:space="preserve">
<style type="text/css">
	.st0{fill:#1C1C1C;}
	.st1{fill:#FFC857;}
	.st2{fill:#FFF4E2;}
</style>
<g>
	<path class="st0" d="M475.9,970.6l-18.1,46.7h3.7l4.5-11.9h23.4l4.5,11.9h3.7l-18.1-46.7H475.9z M467.4,1002.1l10.4-27.1l10.4,27.1
		H467.4z"/>
	<path class="st0" d="M536.9,983.2c-5.6,0-9.5,2.4-11.9,7.1V984h-3.3v33.3h3.3v-17.6c0-4.3,1.1-7.6,3.3-9.9c2.2-2.3,5-3.4,8.4-3.4
		c3.1,0,5.5,0.9,7.2,2.7c1.7,1.8,2.6,4.3,2.6,7.4v20.7h3.4v-20.7c0-4-1.2-7.3-3.5-9.7C544,984.4,540.9,983.2,536.9,983.2z"/>
	<path class="st0" d="M574.2,983.2c-5.1,0-9.2,1.7-12.4,5c-3.2,3.3-4.8,7.5-4.8,12.4c0,5.1,1.6,9.2,4.9,12.5
		c3.3,3.3,7.5,4.9,12.6,4.9c3.2,0,6.1-0.7,8.7-2c2.5-1.4,4.5-3.2,5.9-5.5l-2.9-1.7c-1,1.8-2.5,3.3-4.5,4.4c-2,1.1-4.3,1.7-7,1.7
		c-3.8,0-7-1.1-9.6-3.4c-2.6-2.3-4.1-5.3-4.5-9h30.2c0-0.2,0-0.4,0-0.8c0-0.4,0-0.6,0-0.8c0-4.8-1.5-8.9-4.6-12.3
		C583.1,985,579.1,983.2,574.2,983.2z M560.4,999.1c0.4-3.7,1.8-6.8,4.3-9.1c2.5-2.4,5.7-3.5,9.5-3.5c3.4,0,6.3,1.1,8.8,3.4
		c2.5,2.2,3.9,5.3,4.2,9.3H560.4z"/>
	<polygon class="st0" points="628.8,1013 619.4,984 616,984 606.6,1013 597.8,984 594.2,984 604.8,1017.3 608.4,1017.3 617.7,988.9 
		627,1017.3 630.6,1017.3 641.2,984 637.6,984 	"/>
	<polygon class="st0" points="678.1,1013.8 665.6,984 662,984 676.2,1017.3 680.2,1017.3 694.3,984 690.7,984 	"/>
	<path class="st0" d="M702,970.6c-0.7,0-1.3,0.3-1.9,0.8c-0.5,0.5-0.8,1.1-0.8,1.8c0,0.8,0.3,1.4,0.8,1.9c0.5,0.5,1.2,0.8,1.9,0.8
		c0.7,0,1.3-0.3,1.9-0.8c0.5-0.5,0.8-1.1,0.8-1.9c0-0.7-0.3-1.3-0.8-1.8C703.3,970.9,702.7,970.6,702,970.6z"/>
	<rect x="700.3" y="984" class="st0" width="3.3" height="33.3"/>
	<path class="st0" d="M729.3,1000.2c-2-0.6-4-1.1-6-1.6c-2-0.5-3.7-1.2-5.1-2.1c-1.4-0.9-2.1-2.2-2.1-3.9c0-1.9,0.8-3.4,2.3-4.6
		s3.4-1.7,5.7-1.7c1.9,0,3.6,0.4,5.2,1.3c1.6,0.9,2.7,2.1,3.3,3.8l2.8-1.6c-0.9-2-2.4-3.7-4.4-4.9c-2-1.2-4.3-1.8-7-1.8
		c-3.3,0-6.1,0.9-8.2,2.7c-2.1,1.8-3.2,4.1-3.2,6.7c0,2.2,0.7,4,2.1,5.3c1.4,1.3,3.1,2.3,5,2.9c2,0.6,4,1.1,6,1.6
		c2,0.5,3.7,1.2,5.1,2.2c1.4,1,2.1,2.3,2.1,3.9c0,2-0.8,3.5-2.4,4.6c-1.6,1.1-3.7,1.6-6.2,1.6c-2.5,0-4.6-0.5-6.3-1.6
		c-1.7-1-2.9-2.5-3.5-4.3l-2.9,1.7c0.8,2.2,2.4,4,4.6,5.4c2.2,1.4,4.9,2,8.1,2c3.6,0,6.4-0.9,8.6-2.7c2.2-1.8,3.3-4,3.3-6.8
		c0-2.3-0.7-4.1-2.1-5.4C733,1001.8,731.3,1000.8,729.3,1000.2z"/>
	<rect x="744.1" y="984" class="st0" width="3.3" height="33.3"/>
	<path class="st0" d="M745.8,970.6c-0.7,0-1.3,0.3-1.9,0.8c-0.5,0.5-0.8,1.1-0.8,1.8c0,0.8,0.3,1.4,0.8,1.9c0.5,0.5,1.2,0.8,1.9,0.8
		c0.7,0,1.3-0.3,1.9-0.8c0.5-0.5,0.8-1.1,0.8-1.9c0-0.7-0.3-1.3-0.8-1.8C747.1,970.9,746.5,970.6,745.8,970.6z"/>
	<path class="st0" d="M773,983.2c-4.9,0-9,1.7-12.4,5c-3.4,3.4-5.1,7.5-5.1,12.4c0,4.9,1.7,9,5.1,12.4c3.4,3.4,7.5,5,12.4,5
		c4.8,0,9-1.7,12.4-5c3.4-3.4,5.1-7.5,5.1-12.4c0-4.9-1.7-9-5.1-12.4C782,984.9,777.8,983.2,773,983.2z M783,1010.7
		c-2.7,2.8-6,4.1-10,4.1c-4,0-7.3-1.4-10-4.1c-2.7-2.8-4.1-6.1-4.1-10.1c0-4,1.4-7.3,4.1-10.1c2.7-2.8,6.1-4.1,10-4.1
		c4,0,7.3,1.4,10,4.1c2.7,2.8,4.1,6.1,4.1,10.1C787.1,1004.6,785.7,1007.9,783,1010.7z"/>
	<path class="st0" d="M813.7,983.2c-5.6,0-9.5,2.4-11.9,7.1V984h-3.3v33.3h3.3v-17.6c0-4.3,1.1-7.6,3.3-9.9c2.2-2.3,5-3.4,8.4-3.4
		c3.1,0,5.5,0.9,7.2,2.7c1.7,1.8,2.6,4.3,2.6,7.4v20.7h3.4v-20.7c0-4-1.2-7.3-3.5-9.7C820.8,984.4,817.7,983.2,813.7,983.2z"/>
	<path class="st0" d="M869.1,983.2c-4.9,0-9,1.7-12.4,5c-3.4,3.4-5.1,7.5-5.1,12.4c0,4.9,1.7,9,5.1,12.4c3.4,3.4,7.5,5,12.4,5
		c4.8,0,9-1.7,12.4-5c3.4-3.4,5.1-7.5,5.1-12.4c0-4.9-1.7-9-5.1-12.4C878.1,984.9,873.9,983.2,869.1,983.2z M879.1,1010.7
		c-2.7,2.8-6,4.1-10,4.1c-4,0-7.3-1.4-10-4.1c-2.7-2.8-4.1-6.1-4.1-10.1c0-4,1.4-7.3,4.1-10.1c2.7-2.8,6.1-4.1,10-4.1
		c4,0,7.3,1.4,10,4.1c2.7,2.8,4.1,6.1,4.1,10.1C883.2,1004.6,881.8,1007.9,879.1,1010.7z"/>
	<path class="st0" d="M899.1,972.7c-2.3,2.2-3.4,5.3-3.4,9.5v1.8h-5.7v3.3h5.7v30.1h3.4v-30.1h9.9V984H899v-1.8
		c0-6.6,3.3-9.6,9.9-9.1v-3.2C904.6,969.6,901.3,970.5,899.1,972.7z"/>
	<path class="st0" d="M939,974.6l-3.4,1v8.3h-7.3v3.3h7.3v21.7c0,3.7,1.1,6.2,3.3,7.5c2.2,1.3,5.5,1.6,10,0.9v-3
		c-2.3,0.2-4.1,0.3-5.6,0.2c-1.5-0.1-2.6-0.6-3.3-1.4c-0.7-0.8-1.1-2.2-1.1-4.1v-21.7h9.9V984H939V974.6z"/>
	<path class="st0" d="M972.2,983.2c-5.6,0-9.5,2.4-11.9,7.1v-19.7h-3.3v46.7h3.3v-17.6c0-4.3,1.1-7.6,3.3-9.9c2.2-2.3,5-3.4,8.4-3.4
		c3.1,0,5.5,0.9,7.2,2.7c1.7,1.8,2.6,4.3,2.6,7.4v20.7h3.4v-20.7c0-4-1.2-7.3-3.5-9.7C979.3,984.4,976.2,983.2,972.2,983.2z"/>
	<path class="st0" d="M1009.5,983.2c-5.1,0-9.2,1.7-12.4,5c-3.2,3.3-4.8,7.5-4.8,12.4c0,5.1,1.6,9.2,4.9,12.5
		c3.3,3.3,7.5,4.9,12.6,4.9c3.2,0,6.1-0.7,8.7-2c2.5-1.4,4.5-3.2,5.9-5.5l-2.9-1.7c-1,1.8-2.5,3.3-4.5,4.4c-2,1.1-4.3,1.7-7,1.7
		c-3.8,0-7-1.1-9.6-3.4c-2.6-2.3-4.1-5.3-4.5-9h30.2c0-0.2,0-0.4,0-0.8c0-0.4,0-0.6,0-0.8c0-4.8-1.5-8.9-4.6-12.3
		C1018.4,985,1014.4,983.2,1009.5,983.2z M995.7,999.1c0.4-3.7,1.8-6.8,4.3-9.1c2.5-2.4,5.7-3.5,9.5-3.5c3.4,0,6.3,1.1,8.8,3.4
		c2.5,2.2,3.9,5.3,4.2,9.3H995.7z"/>
	<polygon class="st0" points="1063.4,1013.8 1050.9,984 1047.3,984 1061.5,1017.3 1065.5,1017.3 1079.6,984 1076,984 	"/>
	<path class="st0" d="M1113.6,991.5c-1.4-2.6-3.4-4.6-5.9-6.1c-2.5-1.5-5.3-2.2-8.5-2.2c-4.8,0-8.8,1.7-12.2,5
		c-3.4,3.4-5.1,7.5-5.1,12.4c0,4.9,1.7,9,5.1,12.4c3.4,3.4,7.4,5,12.2,5c3.2,0,6-0.7,8.5-2.2c2.5-1.5,4.4-3.5,5.9-6.1v7.5h3.4V984
		h-3.4V991.5z M1109.6,1010.7c-2.7,2.8-6,4.1-10,4.1c-4,0-7.3-1.4-10-4.1c-2.7-2.8-4.1-6.1-4.1-10.1c0-4,1.4-7.3,4.1-10.1
		c2.7-2.8,6.1-4.1,10-4.1c4,0,7.3,1.4,10,4.1c2.7,2.8,4.1,6.1,4.1,10.1C1113.6,1004.6,1112.3,1007.9,1109.6,1010.7z"/>
	<path class="st0" d="M1142.7,1000.2c-2-0.6-4-1.1-6-1.6c-2-0.5-3.7-1.2-5.1-2.1c-1.4-0.9-2.1-2.2-2.1-3.9c0-1.9,0.8-3.4,2.3-4.6
		c1.5-1.1,3.4-1.7,5.7-1.7c1.9,0,3.6,0.4,5.2,1.3c1.6,0.9,2.7,2.1,3.3,3.8l2.8-1.6c-0.9-2-2.4-3.7-4.4-4.9c-2-1.2-4.3-1.8-7-1.8
		c-3.3,0-6.1,0.9-8.2,2.7c-2.1,1.8-3.2,4.1-3.2,6.7c0,2.2,0.7,4,2.1,5.3c1.4,1.3,3.1,2.3,5,2.9c2,0.6,4,1.1,6,1.6
		c2,0.5,3.7,1.2,5.1,2.2c1.4,1,2.1,2.3,2.1,3.9c0,2-0.8,3.5-2.4,4.6c-1.6,1.1-3.7,1.6-6.2,1.6c-2.5,0-4.6-0.5-6.3-1.6
		c-1.7-1-2.9-2.5-3.5-4.3l-2.9,1.7c0.8,2.2,2.4,4,4.6,5.4c2.2,1.4,4.9,2,8.1,2c3.6,0,6.4-0.9,8.6-2.7c2.2-1.8,3.3-4,3.3-6.8
		c0-2.3-0.7-4.1-2.1-5.4C1146.3,1001.8,1144.6,1000.8,1142.7,1000.2z"/>
	<path class="st0" d="M1163.6,974.6l-3.4,1v8.3h-7.3v3.3h7.3v21.7c0,3.7,1.1,6.2,3.3,7.5c2.2,1.3,5.5,1.6,10,0.9v-3
		c-2.3,0.2-4.1,0.3-5.6,0.2c-1.5-0.1-2.6-0.6-3.3-1.4c-0.7-0.8-1.1-2.2-1.1-4.1v-21.7h9.9V984h-9.9V974.6z"/>
	<path class="st0" d="M1196.8,983.2c-5.6,0-9.5,2.4-11.9,7.1V984h-3.3v33.3h3.3v-17.6c0-4.3,1.1-7.6,3.3-9.9c2.2-2.3,5-3.4,8.4-3.4
		c3.1,0,5.5,0.9,7.2,2.7c1.7,1.8,2.6,4.3,2.6,7.4v20.7h3.4v-20.7c0-4-1.2-7.3-3.5-9.7C1203.9,984.4,1200.8,983.2,1196.8,983.2z"/>
	<path class="st0" d="M1234.1,983.2c-5.1,0-9.2,1.7-12.4,5c-3.2,3.3-4.8,7.5-4.8,12.4c0,5.1,1.6,9.2,4.9,12.5
		c3.3,3.3,7.5,4.9,12.6,4.9c3.2,0,6.1-0.7,8.7-2c2.5-1.4,4.5-3.2,5.9-5.5l-2.9-1.7c-1,1.8-2.5,3.3-4.5,4.4c-2,1.1-4.3,1.7-7,1.7
		c-3.8,0-7-1.1-9.6-3.4c-2.6-2.3-4.1-5.3-4.5-9h30.2c0-0.2,0-0.4,0-0.8c0-0.4,0-0.6,0-0.8c0-4.8-1.5-8.9-4.6-12.3
		C1243,985,1239,983.2,1234.1,983.2z M1220.3,999.1c0.4-3.7,1.8-6.8,4.3-9.1c2.5-2.4,5.7-3.5,9.5-3.5c3.4,0,6.3,1.1,8.8,3.4
		c2.5,2.2,3.9,5.3,4.2,9.3H1220.3z"/>
	<path class="st0" d="M1272.4,1000.2c-2-0.6-4-1.1-6-1.6c-2-0.5-3.7-1.2-5.1-2.1c-1.4-0.9-2.1-2.2-2.1-3.9c0-1.9,0.8-3.4,2.3-4.6
		c1.5-1.1,3.4-1.7,5.7-1.7c1.9,0,3.6,0.4,5.2,1.3c1.6,0.9,2.7,2.1,3.3,3.8l2.8-1.6c-0.9-2-2.4-3.7-4.4-4.9c-2-1.2-4.3-1.8-7-1.8
		c-3.3,0-6.1,0.9-8.2,2.7c-2.1,1.8-3.2,4.1-3.2,6.7c0,2.2,0.7,4,2.1,5.3c1.4,1.3,3.1,2.3,5,2.9c2,0.6,4,1.1,6,1.6
		c2,0.5,3.7,1.2,5.1,2.2c1.4,1,2.1,2.3,2.1,3.9c0,2-0.8,3.5-2.4,4.6c-1.6,1.1-3.7,1.6-6.2,1.6c-2.5,0-4.6-0.5-6.3-1.6
		c-1.7-1-2.9-2.5-3.5-4.3l-2.9,1.7c0.8,2.2,2.4,4,4.6,5.4c2.2,1.4,4.9,2,8.1,2c3.6,0,6.4-0.9,8.6-2.7c2.2-1.8,3.3-4,3.3-6.8
		c0-2.3-0.7-4.1-2.1-5.4C1276.1,1001.8,1274.4,1000.8,1272.4,1000.2z"/>
	<path class="st0" d="M1301,1000.2c-2-0.6-4-1.1-6-1.6c-2-0.5-3.7-1.2-5.1-2.1c-1.4-0.9-2.1-2.2-2.1-3.9c0-1.9,0.8-3.4,2.3-4.6
		c1.5-1.1,3.4-1.7,5.7-1.7c1.9,0,3.6,0.4,5.2,1.3c1.6,0.9,2.7,2.1,3.3,3.8l2.8-1.6c-0.9-2-2.4-3.7-4.4-4.9c-2-1.2-4.3-1.8-7-1.8
		c-3.3,0-6.1,0.9-8.2,2.7c-2.1,1.8-3.2,4.1-3.2,6.7c0,2.2,0.7,4,2.1,5.3c1.4,1.3,3.1,2.3,5,2.9c2,0.6,4,1.1,6,1.6
		c2,0.5,3.7,1.2,5.1,2.2c1.4,1,2.1,2.3,2.1,3.9c0,2-0.8,3.5-2.4,4.6c-1.6,1.1-3.7,1.6-6.2,1.6c-2.5,0-4.6-0.5-6.3-1.6
		c-1.7-1-2.9-2.5-3.5-4.3l-2.9,1.7c0.8,2.2,2.4,4,4.6,5.4c2.2,1.4,4.9,2,8.1,2c3.6,0,6.4-0.9,8.6-2.7c2.2-1.8,3.3-4,3.3-6.8
		c0-2.3-0.7-4.1-2.1-5.4C1304.6,1001.8,1302.9,1000.8,1301,1000.2z"/>
	<path class="st0" d="M1349.2,983.2c-4.9,0-9,1.7-12.4,5c-3.4,3.4-5.1,7.5-5.1,12.4c0,4.9,1.7,9,5.1,12.4c3.4,3.4,7.5,5,12.4,5
		c4.8,0,9-1.7,12.4-5c3.4-3.4,5.1-7.5,5.1-12.4c0-4.9-1.7-9-5.1-12.4C1358.1,984.9,1354,983.2,1349.2,983.2z M1359.2,1010.7
		c-2.7,2.8-6,4.1-10,4.1c-4,0-7.3-1.4-10-4.1c-2.7-2.8-4.1-6.1-4.1-10.1c0-4,1.4-7.3,4.1-10.1c2.7-2.8,6.1-4.1,10-4.1
		c4,0,7.3,1.4,10,4.1c2.7,2.8,4.1,6.1,4.1,10.1C1363.2,1004.6,1361.9,1007.9,1359.2,1010.7z"/>
	<path class="st0" d="M1379.1,972.7c-2.3,2.2-3.4,5.3-3.4,9.5v1.8h-5.7v3.3h5.7v30.1h3.4v-30.1h9.9V984h-9.9v-1.8
		c0-6.6,3.3-9.6,9.9-9.1v-3.2C1384.7,969.6,1381.4,970.5,1379.1,972.7z"/>
	<path class="st0" d="M1441.6,991.7c-1.4-2.6-3.3-4.7-5.8-6.2c-2.5-1.5-5.3-2.3-8.5-2.3c-4.8,0-8.9,1.7-12.2,5
		c-3.4,3.4-5,7.5-5,12.4c0,4.9,1.7,9,5,12.4c3.4,3.4,7.4,5,12.2,5c3.2,0,6-0.8,8.5-2.3c2.5-1.5,4.5-3.6,5.8-6.2v6.1
		c0,3.8-1.2,6.9-3.5,9.1c-2.4,2.2-5.6,3.4-9.7,3.4c-6.4,0-10.7-2.2-12.8-6.5l-2.9,1.7c1.2,2.5,3.2,4.4,5.9,5.9
		c2.7,1.4,6,2.1,9.8,2.1c4.8,0,8.7-1.4,11.9-4.2c3.2-2.8,4.7-6.6,4.7-11.5V984h-3.3V991.7z M1437.5,1010.7c-2.7,2.8-6.1,4.1-10,4.1
		c-4,0-7.3-1.4-10-4.1c-2.7-2.8-4.1-6.1-4.1-10.1c0-4,1.4-7.3,4.1-10.1c2.7-2.8,6.1-4.1,10-4.1c4,0,7.3,1.4,10,4.1
		c2.7,2.8,4.1,6.1,4.1,10.1C1441.6,1004.6,1440.2,1007.9,1437.5,1010.7z"/>
	<path class="st0" d="M1470.4,983.2c-4.9,0-9,1.7-12.4,5c-3.4,3.4-5.1,7.5-5.1,12.4c0,4.9,1.7,9,5.1,12.4c3.4,3.4,7.5,5,12.4,5
		c4.8,0,9-1.7,12.4-5c3.4-3.4,5.1-7.5,5.1-12.4c0-4.9-1.7-9-5.1-12.4C1479.4,984.9,1475.3,983.2,1470.4,983.2z M1480.4,1010.7
		c-2.7,2.8-6,4.1-10,4.1c-4,0-7.3-1.4-10-4.1c-2.7-2.8-4.1-6.1-4.1-10.1c0-4,1.4-7.3,4.1-10.1c2.7-2.8,6.1-4.1,10-4.1
		c4,0,7.3,1.4,10,4.1c2.7,2.8,4.1,6.1,4.1,10.1C1484.5,1004.6,1483.1,1007.9,1480.4,1010.7z"/>
	<rect x="1495.9" y="968.6" class="st0" width="3.3" height="48.7"/>
	<path class="st0" d="M1538.9,991.7c-1.4-2.6-3.3-4.7-5.8-6.2c-2.5-1.5-5.3-2.3-8.5-2.3c-4.8,0-8.9,1.7-12.2,5
		c-3.4,3.4-5,7.5-5,12.4c0,4.9,1.7,9,5,12.4c3.4,3.4,7.4,5,12.2,5c3.2,0,6-0.8,8.5-2.3c2.5-1.5,4.5-3.6,5.8-6.2v7.7h3.3v-46.7h-3.3
		V991.7z M1534.8,1010.7c-2.7,2.8-6.1,4.1-10,4.1c-4,0-7.3-1.4-10-4.1c-2.7-2.8-4.1-6.1-4.1-10.1c0-4,1.4-7.3,4.1-10.1
		c2.7-2.8,6.1-4.1,10-4.1c4,0,7.3,1.4,10,4.1c2.7,2.8,4.1,6.1,4.1,10.1C1538.9,1004.6,1537.5,1007.9,1534.8,1010.7z"/>
</g>
</svg>
