<?xml version="1.0" encoding="utf-8"?>
<!-- Generator: Adobe Illustrator 26.0.3, SVG Export Plug-In . SVG Version: 6.00 Build 0)  -->
<svg version="1.1" id="Layer_1" xmlns="http://www.w3.org/2000/svg" xmlns:xlink="http://www.w3.org/1999/xlink" x="0px" y="0px"
	 viewBox="0 0 2000 2000" style="enable-background:new 0 0 2000 2000;" xml:space="preserve">
<style type="text/css">
	.st0{fill:#1C1C1C;}
	.st1{fill:#FFC857;}
	.st2{fill:#FFF4E2;}
</style>
<g>
	<g>
		<path class="st1" d="M1181.7,918.1l-4.9,0.5v125.1l4.9-0.5l74.9-8V910.1L1181.7,918.1z"/>
		<path class="st1" d="M1176.7,918.6v-61.4c0-18.8-15.2-34-34-34H857.2c-18.8,0-34,15.2-34,34v285.6c0,18.8,15.2,34,34,34h285.6
			c18.8,0,34-15.2,34-34v-99.1l4.9-0.5l74.9-8v106.6c0,63.4-51.4,114.8-114.8,114.8H858.2c-63.4,0-114.8-51.4-114.8-114.8V858.2
			c0-63.4,51.4-114.8,114.8-114.8h283.6c63.4,0,114.8,51.4,114.8,114.8v51.8l-74.9,8L1176.7,918.6z"/>
	</g>
	<g>
		<polygon class="st2" points="672,972.5 743.4,964.9 743.4,1089.9 672,1097.5 		"/>
		<polygon class="st2" points="1328,902.5 1328,1027.5 1261.5,1034.6 1256.6,1035.1 1181.7,1043.1 1176.7,1043.7 828.2,1080.9 
			823.2,1081.4 823.2,956.4 828.2,955.8 1176.7,918.6 1181.7,918.1 1256.6,910.1 1261.5,909.5 		"/>
	</g>
</g>
</svg>
