<?xml version="1.0" encoding="utf-8"?>
<!-- Generator: Adobe Illustrator 26.0.3, SVG Export Plug-In . SVG Version: 6.00 Build 0)  -->
<svg version="1.1" id="Layer_1" xmlns="http://www.w3.org/2000/svg" xmlns:xlink="http://www.w3.org/1999/xlink" x="0px" y="0px"
	 viewBox="0 0 2000 2000" style="enable-background:new 0 0 2000 2000;" xml:space="preserve">
<style type="text/css">
	.st0{fill:#1C1C1C;}
	.st1{fill:#FFC857;}
	.st2{fill:#FFF4E2;}
</style>
<g>
	<polygon class="st0" points="865.8,956.2 865.8,932.2 771.8,932.2 771.8,956.2 830.7,956.2 	"/>
	<polygon class="st0" points="806.9,1067.8 830.7,1067.8 830.7,956.2 806.9,968.2 	"/>
	<rect x="976.1" y="932.2" class="st0" width="23.9" height="135.6"/>
	<path class="st0" d="M1242.3,1043.9v-57.5c0-13.4-10.7-24.1-24.1-24.1h-37.6l-10.3,24.1h43.2c2.7,0,4.7,2,4.7,4.7v47.9
		c0,2.7-2,4.9-4.7,4.9h-43.2v-57.5v-54.2h-23.9v135.6h23.9h47.9C1231.6,1067.8,1242.3,1057.1,1242.3,1043.9z"/>
	<path class="st0" d="M1288.2,1043.9c-2.7,0-4.9-2.2-4.9-4.9v-47.9c0-2.7,2.2-4.7,4.9-4.7h38.3c2.7,0,4.7,2,4.7,4.7v11.9h-22.1
		l-13.8,24.1h59.9v-40.7c0-13.4-10.7-24.1-24.1-24.1h-47.9c-13.2,0-23.9,10.7-23.9,24.1v57.5c0,13.2,10.7,23.9,23.9,23.9h58.4
		l13.6-23.9H1288.2z"/>
	<polygon class="st0" points="1485.5,962.4 1485.5,1067.8 1509.3,1067.8 1509.3,986.4 1509.3,962.4 	"/>
	<path class="st0" d="M1551.8,962.4h-25.7l-16.8,24.1h37.8c2.7,0,4.7,2,4.7,4.7v76.7h24v-81.4C1575.9,973,1565.2,962.4,1551.8,962.4
		z"/>
	<path class="st0" d="M891.9,1027.1H926l-7.1-24.1h-32c-13.2,0-23.9,10.9-23.9,24.1v16.8c0,13.2,10.7,23.9,23.9,23.9h47.9H959v-81.4
		c0-13.4-10.7-24.1-24.1-24.1h-49.1l-13.2,24.1h57.5c2.7,0,4.7,2,4.7,4.7v52.8h-43c-2.7,0-4.9-2.2-4.9-4.9v-7.2
		C887,1029.3,889.1,1027.1,891.9,1027.1z"/>
	<path class="st0" d="M1088.9,962.4h-49.1l-13.2,24.1h57.5c2.7,0,4.7,2,4.7,4.7v52.8h-43c-2.7,0-4.9-2.2-4.9-4.9v-7.2
		c0-2.5,2.2-4.7,4.9-4.7h34.2l-7.1-24.1h-32c-13.2,0-23.9,10.9-23.9,24.1v16.8c0,13.2,10.7,23.9,23.9,23.9h47.9h24.1v-81.4
		C1113,973,1102.3,962.4,1088.9,962.4z"/>
	<path class="st0" d="M1444.3,962.4h-49.1l-13.2,24.1h57.5c2.7,0,4.7,2,4.7,4.7v52.8h-43c-2.7,0-4.9-2.2-4.9-4.9v-7.2
		c0-2.5,2.2-4.7,4.9-4.7h34.2l-7.1-24.1h-32c-13.2,0-23.9,10.9-23.9,24.1v16.8c0,13.2,10.7,23.9,23.9,23.9h47.9h24.1v-81.4
		C1468.3,973,1457.6,962.4,1444.3,962.4z"/>
</g>
<g>
	<g>
		<path class="st1" d="M663,961.6l-2.3,0.2v58.6l2.3-0.2l35.1-3.8v-58.6L663,961.6z"/>
		<path class="st1" d="M660.7,961.8v-28.8c0-8.8-7.1-15.9-15.9-15.9H510.9c-8.8,0-15.9,7.1-15.9,15.9v133.9
			c0,8.8,7.1,15.9,15.9,15.9h133.9c8.8,0,15.9-7.1,15.9-15.9v-46.5l2.3-0.2l35.1-3.8v50c0,29.7-24.1,53.8-53.8,53.8H511.4
			c-29.7,0-53.8-24.1-53.8-53.8V933.6c0-29.7,24.1-53.8,53.8-53.8h132.9c29.7,0,53.8,24.1,53.8,53.8v24.3l-35.1,3.8L660.7,961.8z"/>
	</g>
	<g>
		<polygon class="st0" points="424.1,987.1 457.6,983.5 457.6,1042.1 424.1,1045.7 		"/>
		<polygon class="st0" points="731.6,954.3 731.6,1012.9 700.4,1016.2 698.1,1016.5 663,1020.2 660.7,1020.5 497.3,1037.9 
			495,1038.2 495,979.5 497.3,979.3 660.7,961.8 663,961.6 698.1,957.8 700.4,957.6 		"/>
	</g>
</g>
</svg>
