<?xml version="1.0" encoding="utf-8"?>
<!-- Generator: Adobe Illustrator 26.0.3, SVG Export Plug-In . SVG Version: 6.00 Build 0)  -->
<svg version="1.1" id="Layer_1" xmlns="http://www.w3.org/2000/svg" xmlns:xlink="http://www.w3.org/1999/xlink" x="0px" y="0px"
	 viewBox="0 0 2000 2000" style="enable-background:new 0 0 2000 2000;" xml:space="preserve">
<style type="text/css">
	.st0{fill:#1C1C1C;}
	.st1{fill:#FFC857;}
	.st2{fill:#FFF4E2;}
</style>
<g>
	<path class="st0" d="M620.3,985.1c-3.4-2-7.1-3-11.2-3h-45.5v-29.9l-7.8,1.9v65H547c-2.6,0-5-0.7-7.3-2c-2.2-1.3-4-3.1-5.3-5.3
		c-1.3-2.3-2-4.7-2-7.4v-52.5l-7.7,1.9v50.6c0,2.7-0.7,5.1-2,7.4c-1.3,2.3-3.1,4-5.3,5.3c-2.3,1.3-4.7,2-7.4,2h-14.7v-66.7l-7.7,2.2
		v64.5h-6.2v7.7h28.6c4.1,0,7.8-1,11.2-3c3-1.8,5.4-4.1,7.3-6.9c2,3,4.6,5.4,7.7,7.2c3.2,1.8,6.8,2.7,10.6,2.7h62.2
		c4.1,0,7.9-1,11.4-3c3.4-2,6.1-4.7,8.1-8.1c2-3.4,2.9-7.2,2.9-11.3c0-4.1-1-7.8-3-11.2C626.5,989.8,623.8,987.1,620.3,985.1z
		 M621.8,1011.8c-1.3,2.3-3.1,4-5.3,5.3c-2.2,1.3-4.6,2-7.3,2h-45.5v-29.3h45.5c2.7,0,5.1,0.7,7.3,2c2.2,1.3,4,3.1,5.3,5.3
		c1.3,2.3,2,4.7,2,7.4C623.7,1007.1,623.1,1009.6,621.8,1011.8z"/>
	<rect x="693.5" y="986.7" class="st0" width="23.4" height="7.1"/>
	<path class="st0" d="M902.7,1008c0,2-0.5,3.9-1.5,5.6c-1,1.7-2.3,3.1-4,4.1c-1.7,1-3.6,1.5-5.6,1.5c-2,0-3.9-0.5-5.6-1.5
		c-1.7-1-3.1-2.4-4.1-4.1c-1-1.7-1.5-3.6-1.5-5.6v-19.7h-7.7v19.7c0,2-0.5,3.9-1.5,5.6c-1,1.7-2.3,3.1-4,4.1c-1.7,1-3.6,1.5-5.6,1.5
		c-2,0-3.8-0.5-5.5-1.5c-1.7-1-3.1-2.4-4.1-4.1c-1-1.7-1.5-3.6-1.5-5.6v-19.7h-7.6v16.2c0,2.7-0.7,5.1-2,7.4c-1.3,2.3-3.1,4-5.4,5.3
		c-2.3,1.3-4.7,2-7.4,2h-0.2h-20.2l13.3-16.1c1.9-2.4,2.8-5.1,2.8-7.9c0-1.9-0.5-3.9-1.4-5.8c-1.1-2.3-2.7-4-4.8-5.3
		c-2.1-1.3-4.4-2-6.9-2h-31.6v11.3l10.4,25.8h-20.6c-2.6,0-5-0.7-7.2-2c-2.2-1.3-3.9-3.1-5.2-5.3c-1.3-2.3-2-4.7-2-7.4v-20l-7.7,1.9
		v18.1c0,2.7-0.7,5.1-2,7.3c-1.3,2.2-3.1,4-5.4,5.3c-2.3,1.3-4.7,2-7.3,2h-54c-2.6,0-5-0.7-7.3-2c-2.2-1.3-4-3.1-5.3-5.3
		c-1.3-2.2-2-4.7-2-7.3v-20l-7.8,1.9v18.1c0,4.1,1,7.8,3,11.2c2,3.4,4.7,6.1,8.2,8.1c3.4,2,7.2,3,11.2,3h54c4.1,0,7.8-1,11.2-3
		c3-1.8,5.5-4.1,7.4-7c1.9,3,4.5,5.4,7.7,7.2c3.2,1.8,6.8,2.7,10.5,2.7h58.9h0.2h0.6l0,0c3.3-0.1,6.4-0.8,9.3-2.3
		c3.1-1.5,5.7-3.7,7.8-6.4c0.9,1.4,2.3,2.7,4,4.1c1.7,1.3,3.6,2.5,5.7,3.4c2.1,0.9,4.1,1.3,6,1.3c3.1,0,5.9-0.7,8.5-2.1
		c2.6-1.4,4.8-3.2,6.5-5.6c1.8,2,4.1,3.8,6.9,5.3c2.8,1.5,5.5,2.3,8.1,2.3c3.4,0,6.6-0.8,9.5-2.5c2.9-1.7,5.2-4,6.9-6.9
		c1.7-2.9,2.5-6.1,2.5-9.5V985l-7.7,1.9V1008z M786.9,992v-2.4h23.7c1.6,0,2.9,0.6,4,1.7c1,1.1,1.6,2.4,1.6,3.9
		c0,1.2-0.4,2.4-1.3,3.4L798,1019L786.9,992z"/>
	<path class="st0" d="M931.3,985.1c-3.4,2-6.1,4.7-8.1,8.2c-2,3.4-3,7.2-3,11.2c0,3.8,1,7.5,3,10.9c2,3.4,4.7,6.2,8.1,8.3
		c3.4,2.1,7,3.1,10.9,3.1h14.2l-27.5,18.4l4.3,6.4l31.7-21.1v-48.4h-22.4C938.5,982.1,934.7,983.1,931.3,985.1z M957.2,1019.1h-14.7
		c-2.7,0-5.1-0.7-7.4-2c-2.3-1.3-4-3.1-5.3-5.4c-1.3-2.3-2-4.7-2-7.4c0-2.6,0.7-5.1,2-7.3c1.3-2.3,3.1-4,5.3-5.3
		c2.3-1.3,4.7-2,7.4-2h14.7V1019.1z"/>
	<rect x="1046.2" y="1039.2" class="st0" width="9.3" height="7.8"/>
	<path class="st0" d="M1063,1004.5c0,2.7-0.7,5.1-2,7.4c-1.3,2.3-3.1,4-5.3,5.3c-2.2,1.3-4.6,2-7.3,2s-5.1-0.7-7.4-2
		c-2.3-1.3-4-3.1-5.4-5.4c-1.3-2.3-2-4.7-2-7.4l-0.1,0v-22.2h-22.3c-4,0-7.7,1-11.1,3c-3.4,2-6.1,4.8-8.2,8.2c-2,3.4-3,7.1-3,11.1
		c0,4.1,1,7.8,3,11.2c2,3.4,4.7,6.1,8.2,8.1c3.4,2,7.1,3,11.2,3c4.1,0,7.8-1,11.2-3c3-1.8,5.5-4.1,7.4-7c2,3,4.7,5.5,7.9,7.3
		c3.2,1.8,6.6,2.7,10.3,2.7l0,0h0.3c4,0,7.7-1,11.2-3c3.4-2,6.1-4.7,8.2-8.1c2-3.4,3-7.2,3-11.2v-20l-7.8,1.9V1004.5z M1026,1004.5
		c0,2.7-0.7,5.1-2,7.4c-1.3,2.3-3.1,4-5.3,5.3c-2.3,1.3-4.7,2-7.4,2c-2.7,0-5.1-0.7-7.3-2c-2.2-1.3-4-3.1-5.3-5.3
		c-1.3-2.3-2-4.7-2-7.4c0-2.7,0.7-5.1,2-7.3c1.3-2.2,3.1-4,5.4-5.3c2.3-1.3,4.7-2,7.3-2h14.7V1004.5z"/>
	<rect x="1157.2" y="963.8" class="st0" width="9.3" height="7.8"/>
	<path class="st0" d="M1159.5,1004.5c0,2.7-0.7,5.1-2,7.4c-1.3,2.3-3.1,4-5.3,5.3c-2.2,1.3-4.6,2-7.3,2h-0.2h-5.9v-37.1h-22.4
		c-4.1,0-7.8,1-11.2,3c-3.4,2-6.1,4.7-8.1,8.2c-2,3.4-3,7.2-3,11.2c0,3.8,1,7.5,3,10.9c2,3.4,4.7,6.2,8.1,8.3
		c3.4,2.1,7,3.1,10.9,3.1h14.2l-27.5,18.4l4.3,6.4l31.7-21.1v-3.6h5.8h0.3h0l0,0c4,0,7.7-1,11.2-3c3.4-2,6.1-4.7,8.2-8.1
		c2-3.4,3-7.2,3-11.2v-20l-7.8,1.9V1004.5z M1131.1,1019.1h-14.7c-2.7,0-5.1-0.7-7.4-2c-2.3-1.3-4-3.1-5.3-5.4c-1.3-2.3-2-4.7-2-7.4
		c0-2.6,0.7-5.1,2-7.3c1.3-2.3,3.1-4,5.3-5.3c2.3-1.3,4.7-2,7.4-2h14.7V1019.1z"/>
	<path class="st0" d="M1343.7,985.1c-3.4-2-7.2-3-11.2-3h-53.8v7.7h6.2c-1.9,1.9-3.4,4.2-4.4,6.7c-1,2.5-1.6,5.2-1.6,8
		c0,2.8,0.5,5.5,1.6,8c1,2.5,2.5,4.7,4.4,6.6h-12.3h-48.8l-0.4,7.7h32.5c0.7,1,1.2,2.1,1.6,3.3c0.4,1.2,0.6,2.5,0.6,3.7
		c0,2.6-0.7,5.1-2,7.3c-1.3,2.3-3.1,4-5.4,5.4c-2.3,1.3-4.7,2-7.3,2h-29.5c-2.7,0-5.1-0.7-7.3-2c-2.2-1.3-4-3.1-5.3-5.3
		c-1.3-2.2-2-4.7-2-7.3v-32.3l-7.8,1.9v30.4c0,4.1,1,7.8,3,11.2c2,3.4,4.7,6.1,8.2,8.1c3.4,2,7.2,3,11.2,3h29.5c4,0,7.8-1,11.2-3
		c3.4-2,6.2-4.7,8.2-8.1c2-3.4,3-7.2,3-11.2c0-2.3-0.5-4.7-1.6-7.1h8.5h59.9c4.1,0,7.8-1,11.2-3c3.4-2,6.1-4.7,8.1-8.1
		c2-3.4,3-7.2,3-11.2c0-4-1-7.7-3-11.2C1349.8,989.9,1347.1,987.2,1343.7,985.1z M1313.8,1011.8c-1.3,2.3-3.1,4-5.3,5.3
		c-2.2,1.3-4.7,2-7.3,2c-2.7,0-5.1-0.7-7.4-2c-2.3-1.3-4-3.1-5.3-5.3c-1.3-2.3-2-4.7-2-7.4c0-2.7,0.7-5.1,2-7.4
		c1.3-2.3,3.1-4,5.3-5.3c2.3-1.3,4.7-2,7.4-2c2.6,0,5.1,0.7,7.3,2c2.3,1.3,4,3.1,5.4,5.3c1.3,2.2,2,4.7,2,7.3
		C1315.8,1007.1,1315.2,1009.6,1313.8,1011.8z M1345.2,1011.8c-1.3,2.3-3.1,4-5.4,5.3c-2.3,1.3-4.7,2-7.4,2h-14.9
		c1.9-1.9,3.3-4.1,4.3-6.6c1-2.5,1.6-5.2,1.6-8c0-2.8-0.5-5.4-1.6-8c-1-2.5-2.5-4.8-4.3-6.7h14.9c2.7,0,5.1,0.7,7.4,2
		c2.3,1.3,4,3.1,5.4,5.3c1.3,2.3,2,4.7,2,7.4C1347.2,1007.1,1346.5,1009.6,1345.2,1011.8z"/>
	<polygon class="st0" points="1436,946.9 1433.9,943.8 1409.7,959 1411.8,962.3 	"/>
	<rect x="1508.5" y="963.8" class="st0" width="9.3" height="7.8"/>
	<path class="st0" d="M1510.7,986.4v18.1c0,2.7-0.7,5.1-2,7.4c-1.3,2.3-3.1,4-5.3,5.3c-2.2,1.3-4.6,2-7.3,2c-2.7,0-5.1-0.7-7.3-2
		c-2.2-1.3-4-3.1-5.3-5.3c-1.3-2.3-2-4.7-2-7.4c0-4.1-1-7.8-3-11.2c-2-3.4-4.7-6.1-8.2-8.1c-3.4-2-7.2-3-11.3-3h-48.8l34.8-21.7
		l-4.3-6.4l-44.3,28.1v7.7h62.7c2.7,0,5.1,0.7,7.4,2c2.3,1.3,4,3.1,5.4,5.3c1.3,2.3,2,4.7,2,7.4c0,2.7-0.7,5.1-2,7.4
		c-1.3,2.3-3.1,4-5.4,5.3c-2.3,1.3-4.7,2-7.4,2h-69l0,0l0,0c-2.6,0-5.1-0.7-7.3-2c-2.3-1.3-4-3.1-5.4-5.3c-1.3-2.2-2-4.7-2-7.3
		v-51.9l-7.7,1.9v49.9c0,4,1,7.7,3,11.2c2,3.4,4.7,6.1,8.1,8.2c3.4,2,7.2,3,11.2,3l0,0l0,0h69c4.1,0,7.8-1,11.3-3
		c3-1.7,5.4-4.1,7.3-6.9c2,3,4.6,5.4,7.8,7.2c3.2,1.8,6.6,2.7,10.3,2.7l0,0h0.3c0,0,0,0,0,0c0,0,0,0,0,0l0,0c4,0,7.7-1,11.2-3
		c3.4-2,6.1-4.7,8.2-8.1c2-3.4,3-7.2,3-11.2v-20L1510.7,986.4z"/>
</g>
</svg>
